<svg width="438" height="500" viewBox="0 0 438 500" fill="none" xmlns="http://www.w3.org/2000/svg">
<path d="M154.855 144.884C154.855 144.884 177.82 136.194 185.579 140.228C193.338 144.261 185.579 169.036 185.579 169.036L163.212 179.275L152.688 165.863L154.855 144.884Z" fill="#FFBD95"/>
<path d="M130.453 226.845C130.453 226.845 135.193 238.908 141.637 242.433C148.08 245.958 153.421 230.836 153.421 230.836L141.609 222.27L130.453 226.845Z" fill="#FFBD95"/>
<path d="M154.888 214.047C154.888 214.047 172.529 229.739 173.481 233.624C174.434 237.509 168.459 255.918 163.909 253.88C159.359 251.843 163.197 237.841 163.197 237.841C163.197 237.841 140.403 234.439 139.534 226.429C138.662 218.418 154.888 214.047 154.888 214.047Z" fill="#FFBD95"/>
<path d="M158.852 238.844C147.252 238.844 140.457 230.532 140.381 230.439C140.174 230.177 140.216 229.797 140.476 229.588C140.739 229.381 141.116 229.417 141.328 229.68C141.409 229.78 149.54 239.679 163.117 237.243C163.438 237.193 163.757 237.405 163.821 237.735C163.877 238.065 163.659 238.377 163.329 238.439C161.768 238.718 160.271 238.844 158.852 238.844Z" fill="black"/>
<path d="M131.373 321.958L207.865 304.054C211.814 303.13 214.264 299.18 213.339 295.233L201.907 246.387C200.983 242.438 197.033 239.988 193.084 240.913L116.591 258.817C112.645 259.741 110.192 263.691 111.117 267.64L122.549 316.486C123.474 320.43 127.426 322.88 131.373 321.958Z" fill="#59ACC9"/>
<path d="M136.677 320.705L213.17 302.801C217.116 301.877 219.569 297.927 218.644 293.978L207.212 245.132C206.288 241.182 202.338 238.733 198.389 239.657L121.896 257.561C117.947 258.485 115.497 262.435 116.422 266.382L127.854 315.228C128.781 319.177 132.731 321.63 136.677 320.705Z" fill="#68B6D8"/>
<path d="M123.56 262.96C120.284 248.958 134.621 233.588 155.519 228.697C176.42 223.806 196.089 231.216 199.365 245.218C202.642 259.22 188.305 274.591 167.407 279.481C146.506 284.372 126.836 276.962 123.56 262.96ZM128.593 261.781C131.222 273.007 148.103 278.691 166.228 274.448C184.352 270.205 196.96 257.622 194.332 246.394C191.704 235.169 174.819 229.485 156.698 233.727C138.573 237.97 125.965 250.556 128.593 261.781Z" fill="#68B6D8"/>
<path d="M122.885 291.175C122.57 291.175 122.282 290.96 122.207 290.639C122.117 290.262 122.352 289.885 122.723 289.798L206.101 270.171C206.489 270.081 206.852 270.316 206.941 270.69C207.031 271.067 206.796 271.442 206.422 271.531L123.047 291.158C122.991 291.17 122.936 291.175 122.885 291.175Z" fill="#231F20"/>
<path d="M100.149 68.4587C100.149 68.4587 127.215 77.9498 143.549 130.033C160.643 184.532 159.031 218.357 159.031 218.357L125.513 228.907L95.75 166.179L100.149 68.4587Z" fill="#FFDD2C"/>
<path d="M182.273 137.901C182.273 137.901 207.878 133.792 225.567 122.578C243.256 111.366 266.57 82.2983 266.57 82.2983L267.972 162.106C267.972 162.106 246.093 172.349 225.123 174.675C204.152 177.002 182.273 174.675 182.273 174.675V137.901Z" fill="#E27640"/>
<path d="M122.219 430.219V454.452L162.071 452.742V430.219H122.219Z" fill="#FFBD95"/>
<path d="M23.625 427.664V450.341L63.1393 448.741V427.664H23.625Z" fill="#FFBD95"/>
<path d="M109.53 177.702C109.53 177.702 140.333 226.484 158.589 304.593C175.241 375.838 178.828 434.764 178.828 434.764H106.804C106.804 434.764 98.7909 376.675 96.657 353.691C94.523 330.706 87.4229 299.94 87.4229 299.94C87.4229 299.94 77.5381 432.521 75.1807 434.764C72.8233 437.01 3.87512 435.261 4.61529 432.214C5.35547 429.167 20.2512 214.725 23.7063 200.522C36.6636 147.243 109.53 177.702 109.53 177.702Z" fill="#40507F"/>
<path d="M73.0017 487.824C73.0017 491.826 71.6582 496.404 68.9042 497.555C66.1502 498.709 43.8695 501.108 24.3707 499.413C5.70706 497.779 5.95846 498.455 4.58145 496.756C3.90831 495.893 1.09568 489.838 2.60118 485.966C2.69614 485.774 2.76033 485.55 2.85809 485.358C3.6262 483.405 4.42784 481.517 5.00322 480.171C5.5786 478.891 6.2825 477.674 7.11485 476.489C9.13148 473.705 13.134 467.942 14.1591 464.965C15.5026 460.996 17.5527 452.416 18.9297 448.382C19.9715 445.38 32.211 440.651 38.1101 438.525C40.1546 437.788 42.3473 437.609 44.484 438.003C50.4417 439.098 62.737 441.525 64.8067 443.26C67.5272 445.533 68.9042 464.42 68.9042 467.269V470.118C68.9042 472.775 70.7282 478.026 71.9125 482.38C72.2337 483.469 72.4878 484.495 72.6805 485.422C72.8733 486.352 73.0017 487.154 73.0017 487.824Z" fill="#5C69A5"/>
<path d="M87.3697 300.639C86.9311 300.605 86.6434 300.27 86.6741 299.885C86.6965 299.597 88.9422 271.054 89.593 258.404C90.2438 245.768 90.2717 239.715 90.2717 239.654C90.2717 239.377 90.4365 239.129 90.6851 239.017L114.016 228.629C114.371 228.476 114.779 228.632 114.938 228.984C115.094 229.336 114.935 229.747 114.583 229.906L91.6598 240.109C91.6431 241.732 91.5397 247.734 90.9867 258.471C90.3331 271.138 88.0875 299.703 88.0623 299.988C88.0372 300.362 87.7328 300.639 87.3697 300.639Z" fill="#231F20"/>
<path d="M56.8407 66.8497C56.8407 66.8497 36.0598 66.777 24.8455 77.9495C13.6311 89.122 23.0579 198.461 23.0579 198.461C23.0579 198.461 61.8153 203.109 83.0262 198.461C104.24 193.814 116.301 187.278 116.301 187.278C116.301 187.278 110.516 82.9157 104.687 72.1566C98.8547 61.3975 56.8407 66.8497 56.8407 66.8497Z" fill="#FFDD2C"/>
<path d="M51.3438 59.0258L51.4639 72.7679C51.4639 72.7679 56.7065 77.1001 63.3402 77.1029C72.2949 77.1057 75.3366 70.1787 75.3366 70.1787L74.9987 54.0708L51.3438 59.0258Z" fill="#FFBD95"/>
<path d="M51.3438 58.6741C51.3438 58.6741 57.7567 71.8716 67.893 70.1818C76.0656 68.8187 74.9903 55.2051 74.9903 55.2051L51.3438 58.6741Z" fill="black"/>
<path d="M79.0862 22.8106C79.0862 22.8106 84.0048 46.1863 76.5696 57.5375C69.1343 68.8915 59.1712 65.7633 54.6715 62.4227C48.6021 57.9174 47.2669 51.5463 47.2669 51.5463C47.2669 51.5463 39.0579 53.3255 36.2006 46.6555C33.198 39.6504 38.2312 33.8714 42.3427 33.4664C46.4569 33.0614 46.9485 33.8016 46.9485 33.8016L45.6134 26.2881C45.6134 26.2881 70.1901 -1.96434 79.0862 22.8106Z" fill="#FFBD95"/>
<path d="M75.2188 33.8695C75.2188 33.8695 87.6118 28.3308 88.7458 37.981C90.0586 49.1619 76.6768 49.4887 76.6768 49.4887L75.2188 33.8695Z" fill="#FFBD95"/>
<path d="M81.6196 43.8052C81.5023 43.8052 81.385 43.7744 81.2789 43.7158C80.9409 43.5286 80.8236 43.1013 81.0107 42.7661L85.0552 35.5571C85.2423 35.2163 85.6752 35.1018 86.0048 35.2889C86.3428 35.4761 86.4601 35.9034 86.273 36.2386L82.2286 43.4476C82.1001 43.6767 81.8626 43.8052 81.6196 43.8052Z" fill="black"/>
<path d="M45.7396 44.6553C45.5804 44.6553 45.424 44.6023 45.2955 44.4933L38.8461 39.1501C38.55 38.9043 38.5082 38.4658 38.754 38.1669C39.0054 37.8709 39.4494 37.829 39.7371 38.0748L46.1865 43.418C46.4826 43.6638 46.5244 44.1023 46.2786 44.4012C46.1362 44.566 45.9379 44.6553 45.7396 44.6553Z" fill="black"/>
<path d="M39.9162 45.7551C39.7095 45.7551 39.5029 45.6629 39.366 45.4842C39.1286 45.1825 39.1845 44.7412 39.4889 44.5038L43.1926 41.6212C43.4886 41.3838 43.9355 41.4369 44.1702 41.7442C44.4076 42.0458 44.3545 42.4871 44.0473 42.7245L40.3436 45.607C40.2179 45.7076 40.067 45.7551 39.9162 45.7551Z" fill="black"/>
<path d="M86.4704 41.5826H82.9092C82.5238 41.5826 82.2109 41.2698 82.2109 40.8843C82.2109 40.4989 82.5238 40.186 82.9092 40.186H86.4704C86.8559 40.186 87.1687 40.4989 87.1687 40.8843C87.1687 41.2698 86.8531 41.5826 86.4704 41.5826Z" fill="black"/>
<path d="M59.127 38.5815C58.7723 38.5815 58.4707 38.3134 58.4315 37.9559L58.0042 33.9365C57.9623 33.5539 58.2416 33.2076 58.6271 33.1684C59.0237 33.1293 59.3561 33.4086 59.3952 33.7913L59.8225 37.8106C59.8644 38.1933 59.5851 38.5396 59.1996 38.5787C59.1773 38.5815 59.1522 38.5815 59.127 38.5815Z" fill="black"/>
<path d="M74.5533 37.0009C74.1986 37.0009 73.897 36.7328 73.8579 36.3753L73.4334 32.356C73.3943 31.9705 73.6708 31.627 74.0562 31.5879C74.4556 31.546 74.7852 31.8281 74.8243 32.2108L75.2489 36.23C75.288 36.6155 75.0114 36.959 74.626 36.9981C74.6036 37.0009 74.5785 37.0009 74.5533 37.0009Z" fill="black"/>
<path d="M67.993 47.8781C67.5098 47.8139 67.2444 47.4592 67.3031 47.0765C68.1941 41.0769 66.0238 36.2364 66.0015 36.1889C65.8395 35.8398 65.996 35.4264 66.3479 35.2644C66.6887 35.0996 67.1104 35.256 67.2724 35.6108C67.3674 35.8202 69.6354 40.8786 68.6829 47.286C68.6327 47.6295 68.3366 47.8781 67.993 47.8781Z" fill="black"/>
<path d="M75.262 29.6774C75.1531 29.6774 75.0413 29.6522 74.9407 29.5992C73.6391 28.926 71.6421 29.2081 70.9801 29.3785C70.6114 29.4679 70.226 29.25 70.131 28.873C70.0361 28.4987 70.2623 28.1188 70.6366 28.0239C70.7567 27.9959 73.5554 27.2976 75.5832 28.359C75.9267 28.5378 76.058 28.9595 75.8792 29.3003C75.7535 29.5433 75.5106 29.6774 75.262 29.6774Z" fill="black"/>
<path d="M55.9341 31.5794C55.7582 31.5794 55.5822 31.5152 55.4453 31.3811C55.1688 31.1102 55.1632 30.6689 55.4341 30.3924C57.0346 28.75 59.9115 28.5433 60.0316 28.5349C60.4757 28.4511 60.7495 28.8031 60.7746 29.183C60.8026 29.5684 60.5093 29.9008 60.1238 29.9259C60.0987 29.9287 57.6574 30.1103 56.4313 31.37C56.2972 31.5096 56.1185 31.5794 55.9341 31.5794Z" fill="black"/>
<path d="M50.5724 35.8986C50.5724 35.8986 56.5413 31.8598 56.1838 25.7345C55.8263 19.6092 54.48 18.045 54.48 18.045C54.48 18.045 60.6221 21.3102 68.2557 19.0086C76.8948 16.4054 81.6571 4.5319 76.9451 1.29468C71.6941 -2.31403 58.9295 2.76663 58.9295 2.76663C58.9295 2.76663 45.556 2.03204 36.8331 12.6515C28.1101 23.2709 37.8833 35.7785 37.8833 35.7785C37.8833 35.7785 40.8663 30.8822 50.5724 35.8986Z" fill="black"/>
<path d="M66.7489 54.3899C63.386 54.3899 60.671 51.6247 60.5397 51.4879C60.2716 51.2086 60.28 50.7672 60.5565 50.4991C60.8386 50.2338 61.2799 50.2393 61.5425 50.5159C61.576 50.5494 64.7573 53.8257 68.0755 52.795C68.4498 52.6945 68.8325 52.89 68.9498 53.2587C69.0616 53.6274 68.8548 54.0156 68.4861 54.1329C67.894 54.3145 67.3131 54.3899 66.7489 54.3899Z" fill="black"/>
<path d="M74.5576 8.83643C74.5576 8.83643 80.303 14.0875 81.6493 20.4865C82.9956 26.8855 81.6493 32.3042 81.6493 32.3042L80.3561 32.2874C80.3561 32.2874 77.2586 16.7717 72.2533 15.3472C67.2452 13.9227 74.5576 8.83643 74.5576 8.83643Z" fill="black"/>
<path d="M24.6823 229.601C24.4616 229.601 24.2465 229.498 24.1097 229.302C23.889 228.987 23.9673 228.551 24.2857 228.33C36.3017 219.954 39.4412 207.756 39.4691 207.636C39.5613 207.262 39.9467 207.016 40.3154 207.125C40.6924 207.217 40.9187 207.594 40.8293 207.969C40.7009 208.488 37.5474 220.789 25.0817 229.476C24.9616 229.562 24.822 229.601 24.6823 229.601Z" fill="#231F20"/>
<path d="M370.922 327.124L408.897 329.188L399.032 365.49L368.383 371.205L370.922 327.124Z" fill="#FFBD95"/>
<path d="M261.886 166.176C261.886 166.176 210.638 331.752 249.94 363.138C289.242 394.524 374.661 379.634 374.661 379.634L378.783 313.222L331.848 308.954L281.035 172.642L261.886 166.176Z" fill="#494949"/>
<path d="M343.723 426.733L338.977 464.468L303.463 452.061L299.93 421.086L343.723 426.733Z" fill="#FFBD95"/>
<path d="M341.38 171.512C341.38 171.512 351.382 207.449 350.22 231.081C349.058 254.714 347.435 308.261 348.137 317.693C348.838 327.126 354.153 431.437 354.153 431.437C354.153 431.437 336.308 437.018 316.848 437.381C297.388 437.744 286.478 435.851 286.478 435.851C286.478 435.851 265.301 319.768 266.477 285.117C267.653 250.466 268.999 172.867 268.999 172.867L341.38 171.512Z" fill="#494949"/>
<path d="M239.956 493.965C239.001 493.856 238.341 492.926 238.49 491.929C239.199 487.206 241.783 473.992 249.126 468.269C258.15 461.233 277.28 458.13 284.171 453.423C291.059 448.717 298.659 437.525 302.86 439.538C307.061 441.552 315.088 451.015 326.395 449.429C337.704 447.845 342.882 445.002 345.986 447.689C349.089 450.379 351.552 488.784 350.287 491.097C349.022 493.409 333.017 491.594 331.635 491.991C330.252 492.387 326.157 483.31 323.568 484.731C320.979 486.153 317.867 490.507 314.052 492.549C310.491 494.454 251.413 495.284 239.956 493.965Z" fill="#F7B369"/>
<path d="M224.943 495.914C225.899 495.805 226.558 494.875 226.41 493.878C225.7 489.154 223.117 475.94 215.774 470.217C206.746 463.181 187.619 460.078 180.728 455.372C173.838 450.665 166.24 439.47 162.04 441.487C157.839 443.501 149.811 452.964 138.505 451.378C127.195 449.794 122.017 446.948 118.914 449.637C115.811 452.327 113.347 490.733 114.612 493.042C115.878 495.355 131.882 493.54 133.265 493.936C134.647 494.333 138.742 485.255 141.331 486.677C143.921 488.099 147.032 492.45 150.848 494.495C154.412 496.403 213.486 497.232 224.943 495.914Z" fill="#5C69A5"/>
<path d="M437.105 431.523C436.999 432.478 436.072 433.143 435.075 432.998C430.349 432.308 417.126 429.771 411.375 422.448C404.306 413.448 401.133 394.33 396.401 387.458C391.669 380.587 380.449 373.029 382.447 368.82C384.446 364.611 393.879 356.55 392.253 345.249C390.628 333.945 387.765 328.778 390.443 325.663C393.119 322.552 431.516 319.949 433.834 321.203C436.15 322.46 434.396 338.47 434.795 339.852C435.198 341.235 426.134 345.363 427.564 347.947C428.994 350.531 433.36 353.625 435.418 357.435C437.337 360.988 438.382 420.063 437.105 431.523Z" fill="#F7B369"/>
<path d="M275.995 373.632C275.66 373.632 275.361 373.388 275.308 373.048C265.292 313.166 275.115 216.546 275.987 208.248L260.44 203.162C260.074 203.042 259.876 202.648 259.996 202.282C260.113 201.916 260.499 201.709 260.876 201.838L276.961 207.1C277.274 207.201 277.475 207.511 277.436 207.84C277.324 208.863 266.3 310.722 276.682 372.822C276.746 373.201 276.492 373.562 276.109 373.623C276.073 373.629 276.034 373.632 275.995 373.632Z" fill="#231F20"/>
<path d="M336.223 210.896C322.236 210.896 316.94 196.416 316.884 196.26C316.755 195.897 316.945 195.5 317.306 195.372C317.683 195.24 318.068 195.433 318.197 195.793C318.431 196.444 324.048 211.728 339.531 209.225C339.936 209.178 340.271 209.424 340.332 209.804C340.394 210.184 340.137 210.544 339.754 210.605C338.522 210.804 337.343 210.896 336.223 210.896Z" fill="#231F20"/>
<path d="M348.879 359.23C348.499 359.23 348.189 358.929 348.181 358.546L347.281 310.434C347.273 310.046 347.58 309.731 347.966 309.722C348.323 309.789 348.67 310.018 348.678 310.406L349.577 358.518C349.586 358.906 349.276 359.222 348.893 359.23C348.887 359.23 348.885 359.23 348.879 359.23Z" fill="#40507F"/>
<path d="M279.199 71.2752C279.199 71.2752 265.513 81.1433 260.608 90.1148C255.703 99.0891 256.348 185.514 256.348 185.514C256.348 185.514 275.49 193.798 299.05 192.698C322.609 191.597 344.047 182.243 344.047 182.243C344.047 182.243 324.559 68.6804 317.526 65.298C310.493 61.9183 300.491 63.0104 279.199 71.2752Z" fill="#E27640"/>
<path d="M298.471 51.4949L300.619 69.8289C300.619 69.8289 297.93 75.4878 287.307 77.6161C279.392 79.2026 276.375 77.7251 276.375 77.7251L276.4 68.3067L276.436 59.1229L295.307 52.5926L298.471 51.4949Z" fill="#FFBD95"/>
<path d="M293.743 51.4949C293.788 51.9809 293.712 52.5786 293.553 53.2797C291.285 62.7595 280.353 68.9854 276.023 70.2088V59.0447L293.743 51.4949Z" fill="black"/>
<path d="M267.466 17.8111C267.466 17.8111 260.536 41.927 265.826 54.2558C271.116 66.5846 282.515 63.0178 289.165 59.6158C295.816 56.2109 298.489 51.5017 298.489 51.5017C298.489 51.5017 305.304 52.8452 308.86 46.2032C312.415 39.5612 308.804 32.9526 304.868 31.8521C300.933 30.7517 296.863 34.028 296.863 34.028L299.453 26.9418C299.453 26.9418 280.381 -4.7824 267.466 17.8111Z" fill="#FFBD95"/>
<path d="M298.567 43.8156C298.379 43.8156 298.187 43.7402 298.05 43.5894C297.79 43.3017 297.81 42.8604 298.094 42.6006L305.658 35.6904C305.943 35.4307 306.387 35.453 306.647 35.7351C306.907 36.0228 306.887 36.4641 306.602 36.7239L299.039 43.634C298.905 43.7542 298.734 43.8156 298.567 43.8156Z" fill="black"/>
<path d="M306.109 42.8289C306.014 42.8233 300.408 42.0608 300.408 42.0608C300.026 42.0077 299.761 41.6558 299.811 41.2731C299.867 40.8932 300.196 40.6447 300.598 40.6754L306.204 41.4379C306.587 41.491 306.852 41.8429 306.802 42.2256C306.754 42.5775 306.453 42.8289 306.109 42.8289Z" fill="black"/>
<path d="M272.852 46.786C272.581 46.786 272.327 46.6267 272.213 46.3642C269.157 39.2641 272.369 33.5829 272.506 33.3455C272.696 33.0131 273.118 32.8986 273.458 33.0885C273.791 33.2812 273.905 33.7086 273.715 34.0438C273.685 34.094 270.727 39.3786 273.495 45.814C273.648 46.1687 273.483 46.5765 273.129 46.7301C273.039 46.7664 272.944 46.786 272.852 46.786Z" fill="black"/>
<path d="M267.433 36.3061C267.02 36.2894 266.718 35.9626 266.735 35.5771L266.925 31.192C266.945 30.8037 267.283 30.5384 267.654 30.5244C268.039 30.5412 268.338 30.868 268.322 31.2534L268.132 35.6386C268.115 36.0157 267.805 36.3061 267.433 36.3061Z" fill="black"/>
<path d="M278.199 36.0954C277.786 36.0786 277.484 35.7518 277.501 35.3664L277.691 30.984C277.707 30.5957 278.054 30.3443 278.42 30.3164C278.805 30.3332 279.104 30.66 279.087 31.0454L278.897 35.4278C278.88 35.8049 278.568 36.0954 278.199 36.0954Z" fill="black"/>
<path d="M340.688 255.202C340.688 255.202 342.19 259.811 345.643 259.422C349.095 259.037 347.958 248.043 347.958 248.043L340.688 255.202Z" fill="#FFBD95"/>
<path d="M296.821 34.0246C296.821 34.0246 284.958 35.0693 280.796 27.8937C273.009 14.4644 266.903 21.9668 266.903 21.9668L264.948 29.2596C264.948 29.2596 258.831 11.8668 262.985 7.0068C267.138 2.14677 285.922 4.98179 292.36 9.05416C298.798 13.1265 300.491 15.5342 300.491 15.5342C300.491 15.5342 304.312 15.037 307.717 18.7072C311.121 22.3773 307.962 34.0386 307.962 34.0386C307.962 34.0386 302.622 30.8628 296.821 34.0246Z" fill="black"/>
<path d="M424.164 314.554L347.359 331.067C343.396 331.919 339.491 329.397 338.639 325.433L328.095 276.386C327.243 272.423 329.765 268.518 333.729 267.666L410.534 251.153C414.497 250.301 418.402 252.823 419.254 256.787L429.798 305.834C430.653 309.795 428.131 313.702 424.164 314.554Z" fill="#6876AA"/>
<path d="M418.829 315.708L342.023 332.221C338.06 333.073 334.155 330.551 333.303 326.587L322.759 277.54C321.907 273.577 324.429 269.672 328.393 268.82L405.198 252.307C409.162 251.455 413.066 253.977 413.918 257.941L424.462 306.988C425.317 310.951 422.795 314.856 418.829 315.708Z" fill="#40507F"/>
<path d="M373.427 291.561C352.442 296.072 332.91 288.307 329.888 274.246C326.866 260.189 341.48 245.081 362.464 240.567C383.449 236.056 402.981 243.821 406.003 257.882C409.025 271.939 394.412 287.05 373.427 291.561ZM363.551 245.622C345.351 249.536 332.516 261.89 334.941 273.163C337.365 284.436 354.141 290.421 372.341 286.511C390.541 282.598 403.375 270.244 400.951 258.971C398.526 247.695 381.748 241.709 363.551 245.622Z" fill="#40507F"/>
<path d="M344.639 219.408C344.639 219.408 336.849 240.884 339.645 251.52L346.393 248.778C346.393 248.778 351.532 263.729 358.325 263.645C361.607 263.606 363.752 256.989 368.38 254.353C373.009 251.716 381.179 247.308 382.234 242.904C383.29 238.499 373.296 215.372 368.38 213.353C363.462 211.333 344.639 219.408 344.639 219.408Z" fill="#FFBD95"/>
<path d="M313.097 63.8633C313.097 63.8633 339.662 68.6255 354.181 94.4926C365.44 114.553 380.911 217.203 378.805 220.141C376.699 223.08 345.946 232.624 339.665 229.685C333.38 226.75 310.32 136.825 310.32 136.825L313.097 63.8633Z" fill="#E27640"/>
<path d="M345.687 250.015C345.4 250.015 345.134 249.833 345.039 249.545L341.9 239.839C341.785 239.482 341.981 239.099 342.336 238.982C342.707 238.87 343.079 239.063 343.193 239.418L346.333 249.124C346.447 249.481 346.252 249.864 345.897 249.981C345.827 250.004 345.754 250.015 345.687 250.015Z" fill="black"/>
<path d="M334.666 301.052C334.345 301.052 334.051 300.829 333.984 300.499C333.903 300.122 334.144 299.751 334.521 299.673L418.284 281.777C418.672 281.691 419.032 281.936 419.11 282.313C419.191 282.691 418.951 283.062 418.574 283.14L334.811 301.036C334.761 301.047 334.711 301.052 334.666 301.052Z" fill="#6876AA"/>
<path d="M277.651 72.2956C277.651 72.2956 271.73 82.6804 273.249 83.9541C274.769 85.2277 281.341 76.5998 283.562 78.1611C285.782 79.7225 292.396 83.6719 295.332 84.0825C298.265 84.4931 303.848 65.4971 302.298 64.7486C300.748 64 300.748 64 300.748 64C300.748 64 294.351 72.6643 286.567 75.1725C278.783 77.6835 277.651 72.2956 277.651 72.2956Z" fill="#FF894E"/>
<path d="M279.745 77.9048C279.745 77.9048 274.606 112.947 274.972 142.314C275.34 171.681 277.243 190.635 277.243 190.635L284.706 191.652C284.706 191.652 281.773 143.191 282.499 127.606C283.376 108.752 286.485 77.5165 286.485 77.5165C286.485 77.5165 283.231 75.7206 279.745 77.9048Z" fill="#FF894E"/>
<path d="M340.721 219.006C340.399 219.006 340.109 218.783 340.039 218.456C339.958 218.079 340.198 217.707 340.573 217.626L378.238 209.523C378.609 209.44 378.989 209.683 379.067 210.057C379.148 210.434 378.908 210.808 378.534 210.886L340.869 218.989C340.818 219 340.771 219.006 340.721 219.006Z" fill="#231F20"/>
<path d="M256.879 172.225C256.457 172.203 256.161 171.873 256.181 171.488L257.767 142.428C257.789 142.045 258.052 141.76 258.504 141.769C258.89 141.791 259.183 142.121 259.164 142.506L257.577 171.566C257.558 171.934 257.248 172.225 256.879 172.225Z" fill="#FF894E"/>
<path d="M281.323 87.3598C280.882 87.3263 280.594 86.9883 280.628 86.6057L280.96 82.5696C280.991 82.1842 281.351 81.8825 281.714 81.93C282.1 81.9607 282.385 82.2987 282.351 82.6841L282.019 86.7202C281.988 87.0833 281.683 87.3598 281.323 87.3598Z" fill="#231F20"/>
<path d="M323.418 187.784C323.147 187.784 322.893 187.625 322.779 187.362C321.413 184.189 309.531 156.185 313.176 150.267C313.651 149.499 314.374 149.06 315.268 149.007C316.581 148.943 317.698 149.39 318.494 150.381C321.96 154.697 318.341 168.489 317.802 170.453C319.955 176.835 322.491 183.17 324.058 186.812C324.212 187.167 324.047 187.574 323.692 187.728C323.603 187.764 323.511 187.784 323.418 187.784ZM315.553 150.392C315.489 150.392 315.419 150.395 315.349 150.401C314.908 150.426 314.601 150.61 314.363 150.999C312.944 153.297 314.573 160.437 316.989 167.986C318.206 162.864 319.67 154.077 317.402 151.255C316.941 150.677 316.332 150.392 315.553 150.392Z" fill="#FF894E"/>
<path d="M280.84 28.5923C280.776 28.5923 280.706 28.5839 280.642 28.5616L275.874 27.1455C275.505 27.0365 275.293 26.6483 275.405 26.2769C275.514 25.9082 275.91 25.6847 276.271 25.8076L281.039 27.2237C281.407 27.3326 281.62 27.7209 281.508 28.0924C281.418 28.394 281.139 28.5923 280.84 28.5923Z" fill="black"/>
<path d="M265.206 28.593C264.921 28.593 264.65 28.417 264.549 28.1293C264.418 27.7662 264.611 27.3668 264.971 27.2383L267.772 26.2412C268.127 26.1127 268.535 26.2998 268.663 26.6629C268.795 27.026 268.605 27.4255 268.242 27.5539L265.44 28.5511C265.362 28.579 265.284 28.593 265.206 28.593Z" fill="black"/>
<path d="M279.555 52.7952C277.831 52.7952 276.119 51.9266 276.013 51.8763C275.801 51.7646 275.655 51.5551 275.636 51.3149C275.613 51.0747 275.72 50.84 275.912 50.6948L282.775 45.5303C282.987 45.3655 283.278 45.3432 283.518 45.4717C283.755 45.5946 283.903 45.8431 283.895 46.1141C283.889 46.2845 283.744 50.354 281.856 52.0215C281.2 52.5969 280.376 52.7952 279.555 52.7952ZM277.736 51.0747C278.784 51.4126 280.169 51.6417 280.929 50.9741C281.708 50.2842 282.127 48.8234 282.331 47.6168L277.736 51.0747Z" fill="black"/>
<path d="M123.573 142.476C123.573 142.476 150.267 137.28 152.526 138.367C161.473 142.668 161.473 142.668 161.473 142.668L154.853 144.883C154.853 144.883 171.947 151.866 170.383 154.659C168.819 157.452 162.227 160.245 162.227 160.245C162.227 160.245 160.233 181.389 154.75 182.92C149.267 184.453 116.336 175.711 116.336 175.711L123.573 142.476Z" fill="#FFBD95"/>
<path d="M113.195 170.348C112.837 170.348 112.533 170.074 112.499 169.711L107.862 117.966C107.826 117.581 108.111 117.243 108.497 117.209C108.921 117.15 109.22 117.46 109.256 117.843L113.893 169.588C113.929 169.974 113.644 170.312 113.259 170.348C113.236 170.348 113.214 170.348 113.195 170.348Z" fill="#FFED8F"/>
<path d="M178.776 462.137C178.452 462.137 178.161 461.91 178.094 461.584C178.013 461.206 178.256 460.835 178.63 460.757C178.823 460.715 197.883 456.567 197.445 446.679C197.389 445.42 197.059 444.671 196.464 444.459C194.738 443.844 191.012 446.453 187.169 449.85C183.611 454.12 179.547 457.517 179.217 457.788C178.938 458.022 178.527 458 178.27 457.735C178.016 457.469 178.008 457.059 178.251 456.785C178.949 456.003 182.368 452.218 186.219 448.813C189.334 445.079 191.962 440.766 190.956 437.644C190.873 437.381 190.644 436.769 190.325 436.75C188.342 436.75 183.139 445.747 179.407 454.145C179.251 454.497 178.837 454.659 178.485 454.5C178.133 454.344 177.974 453.93 178.13 453.578C180.041 449.285 186.527 435.356 190.317 435.356C190.996 435.393 191.808 435.742 192.286 437.222C193.074 439.683 192.054 442.649 190.286 445.551C192.886 443.719 195.314 442.568 196.925 443.149C198.11 443.568 198.749 444.738 198.836 446.624C199.322 457.687 179.748 461.949 178.913 462.125C178.873 462.128 178.823 462.137 178.776 462.137Z" fill="#231F20"/>
<path d="M45.5758 470.764C42.4167 470.764 39.8526 469.552 39.8023 469.53C39.456 469.362 39.3108 468.946 39.4812 468.6C39.6487 468.248 40.0678 468.1 40.4141 468.276C40.7772 468.452 49.4023 472.496 53.6478 464.153C54.5193 462.444 54.55 461.569 54.2903 461.326C53.3518 460.441 48.0896 462.539 43.7742 465.072C43.4642 465.251 43.0731 465.172 42.8636 464.893C42.6513 464.611 42.6821 464.214 42.9334 463.969C45.3662 461.617 51.6564 454.682 51.567 450.894C51.5474 450.201 51.3184 449.668 50.8575 449.266C50.4469 448.905 50.0168 448.788 49.4889 448.9C46.1791 449.601 41.4643 458.396 39.9253 461.729C39.7633 462.081 39.3415 462.231 39.0007 462.069C38.6488 461.907 38.4952 461.494 38.66 461.145C39.2549 459.852 44.6149 448.506 49.1984 447.534C50.1537 447.336 51.0391 447.57 51.7793 448.218C52.539 448.883 52.9357 449.771 52.9608 450.858C53.039 454.14 49.528 458.793 46.8466 461.849C49.9581 460.349 53.8043 458.955 55.2484 460.31C56.5444 461.533 55.2986 463.98 54.888 464.787C52.4608 469.563 48.7208 470.764 45.5758 470.764Z" fill="#231F20"/>
<path d="M294.607 457.012C294.545 457.012 294.481 457.004 294.419 456.987L284.043 454.093C283.671 453.99 283.454 453.602 283.557 453.23C283.66 452.859 284.046 452.646 284.42 452.744L294.796 455.638C295.168 455.741 295.386 456.129 295.282 456.501C295.193 456.811 294.914 457.012 294.607 457.012Z" fill="#5C69A5"/>
<path d="M289.422 462.136C289.352 462.136 289.276 462.125 289.206 462.103L275.858 457.774C275.492 457.654 275.291 457.26 275.408 456.891C275.529 456.525 275.928 456.33 276.291 456.441L289.639 460.771C290.005 460.891 290.206 461.285 290.089 461.65C289.988 461.947 289.715 462.136 289.422 462.136Z" fill="#5C69A5"/>
<path d="M398.012 390.244C397.926 390.244 397.836 390.228 397.747 390.191C397.389 390.043 397.219 389.638 397.364 389.281L401.451 379.315C401.599 378.96 401.998 378.787 402.361 378.932C402.719 379.08 402.886 379.485 402.744 379.843L398.658 389.809C398.549 390.082 398.289 390.244 398.012 390.244Z" fill="#5C69A5"/>
<path d="M400.724 398.78C400.627 398.78 400.529 398.761 400.431 398.719C400.082 398.557 399.925 398.143 400.087 397.791L405.948 385.041C406.11 384.689 406.52 384.532 406.875 384.697C407.224 384.859 407.38 385.273 407.218 385.625L401.358 398.378C401.244 398.629 400.99 398.78 400.724 398.78Z" fill="#5C69A5"/>
<path d="M24.8711 77.9504C24.8711 77.9504 -12.9757 122.579 4.70476 168.392C21.0696 210.797 122.077 181.391 122.077 181.391L124.108 139.969L65.3741 122.774L24.8711 77.9504Z" fill="#FFDD2C"/>
<path d="M163.407 228.222C164.863 229.158 165.994 230.509 166.854 232.009C169.762 237.093 175.387 252.782 170.751 256.89C166.309 260.826 162.916 252.209 162.916 252.209C162.916 252.209 164.262 259.7 158.843 258.871C154.319 258.178 153.221 253.385 153.221 253.385C153.221 253.385 153.875 261.309 147.604 257.907C141.331 254.505 136.931 237.85 137.627 231.92C138.325 225.99 145.755 230.878 145.755 230.878C145.755 230.878 147.35 224.585 150.886 224.892C154.631 225.216 155.62 230.361 155.62 230.361C155.62 230.361 158.168 224.853 163.407 228.222Z" fill="#FFBD95"/>
<path d="M162.966 252.906C162.678 252.906 162.407 252.725 162.307 252.44L155.304 232.505C155.179 232.139 155.369 231.743 155.732 231.614C156.1 231.5 156.494 231.678 156.623 232.042L163.625 251.976C163.751 252.342 163.561 252.739 163.198 252.867C163.122 252.892 163.044 252.906 162.966 252.906Z" fill="black"/>
<path d="M153.238 254.087C152.948 254.087 152.674 253.905 152.576 253.612L145.795 233.524C145.672 233.158 145.867 232.764 146.233 232.638C146.599 232.518 146.996 232.711 147.118 233.077L153.9 253.165C154.023 253.531 153.828 253.925 153.462 254.05C153.389 254.075 153.311 254.087 153.238 254.087Z" fill="black"/>
<path d="M159.614 158.097C161.159 158.522 162.486 159.34 163.589 160.337C167.324 163.706 175.72 174.8 172.228 178.992C168.882 183.009 163.986 176.978 163.986 176.978C163.986 176.978 166.748 182.559 161.533 183.051C157.179 183.461 155.19 179.942 155.19 179.942C155.19 179.942 157.397 186.009 150.866 184.665C144.336 183.324 136.884 171.213 136.339 166.426C135.795 161.639 143.702 163.898 143.702 163.898C143.702 163.898 143.92 158.636 147.28 158.13C150.836 157.597 152.791 161.415 152.791 161.415C152.791 161.415 154.053 156.564 159.614 158.097Z" fill="#FFBD95"/>
<path d="M164.022 177.677C163.791 177.677 163.564 177.563 163.433 177.353L154.171 162.695C153.964 162.368 154.062 161.938 154.386 161.732C154.716 161.528 155.146 161.62 155.35 161.947L164.612 176.605C164.818 176.932 164.721 177.362 164.397 177.569C164.279 177.641 164.151 177.677 164.022 177.677Z" fill="black"/>
<path d="M155.223 180.639C154.997 180.639 154.773 180.527 154.639 180.323L145.201 165.913C144.989 165.592 145.078 165.159 145.402 164.947C145.721 164.737 146.159 164.824 146.369 165.148L155.807 179.558C156.019 179.879 155.929 180.315 155.605 180.524C155.488 180.602 155.354 180.639 155.223 180.639Z" fill="black"/>
<path d="M49.2646 92.6553C48.8987 92.6553 48.5859 92.5715 48.3206 92.3927C45.3236 90.3956 49.4322 76.7066 50.7589 72.556C50.8343 72.3158 51.0355 72.1398 51.2785 72.0868C51.5243 72.0281 51.7756 72.1147 51.9404 72.299C51.9684 72.3297 54.8173 75.3463 63.3866 76.4105C71.7436 77.4411 74.6121 70.0115 74.6429 69.9361C74.7295 69.6986 74.9418 69.5282 75.1904 69.4891C75.4362 69.4528 75.6931 69.5506 75.8467 69.7517C79.2599 74.1257 87.1086 84.5413 86.2846 86.6864C86.1477 87.0411 85.8545 87.2841 85.4746 87.3483C83.9971 87.5886 80.8659 85.653 75.7489 82.4828C72.7854 80.6421 68.3556 77.8517 67.4087 77.9802C67.2746 78.1282 66.4898 78.9047 65.4954 79.8907C57.6188 87.7059 52.027 92.6553 49.2646 92.6553ZM51.7757 73.9861C49.3708 81.7593 47.7033 90.3063 49.097 91.2336C49.921 91.7922 53.2448 90.0772 64.5206 78.8964C64.9033 78.5193 65.2412 78.1841 65.5289 77.8992C64.7999 77.9327 64.0318 77.8992 63.2162 77.7987C56.6384 76.9831 53.2225 75.0558 51.7757 73.9861ZM69.269 77.1227C70.8219 77.8154 73.1039 79.1925 76.492 81.2957C79.3661 83.0805 83.5976 85.7032 84.9607 85.9602C84.6227 84.1921 80.0224 77.4523 75.4361 71.4974C74.601 73.0224 72.6905 75.7709 69.269 77.1227Z" fill="#FFED8F"/>
<path d="M42.2929 139.967C41.9215 139.967 41.6142 139.677 41.5947 139.302C41.5751 138.917 41.874 138.59 42.2594 138.571C42.5443 138.557 71.0565 137.205 80.6034 137.777C80.9888 137.802 81.2793 138.132 81.257 138.52C81.2319 138.903 80.9777 139.168 80.514 139.174C71.0565 138.582 42.6114 139.953 42.3209 139.967C42.3153 139.967 42.3041 139.967 42.2929 139.967Z" fill="#FFED8F"/>
<path d="M50.876 139.166C48.4041 138.859 36.4608 137.175 35.3994 133.736C35.2179 133.153 35.2318 132.25 36.3351 131.27C37.3099 130.407 38.4886 130.038 39.874 130.119C44.9993 130.491 51.1498 137.711 51.4124 138.018C51.5967 138.236 51.6274 138.549 51.4905 138.8C51.3648 139.027 51.1302 139.166 50.876 139.166ZM39.455 131.502C38.5975 131.502 37.8797 131.77 37.2624 132.318C36.6032 132.901 36.701 133.22 36.7345 133.323C37.2568 135.01 43.7089 136.658 49.0382 137.499C47.016 135.415 43.0274 131.745 39.7706 131.51C39.6617 131.502 39.5584 131.502 39.455 131.502Z" fill="#FFED8F"/>
<path d="M227.396 139.171C226.818 139.171 226.273 138.945 225.809 138.507C222.972 135.825 223.217 124.795 223.256 123.544C223.268 123.228 223.488 122.957 223.798 122.888C224.108 122.809 224.427 122.963 224.572 123.242C225.608 125.223 230.692 135.253 229.075 138.211C228.765 138.775 228.251 139.104 227.589 139.163C227.527 139.169 227.463 139.171 227.396 139.171ZM224.65 126.549C224.742 130.49 225.214 136.024 226.77 137.49C227.072 137.775 227.326 137.789 227.471 137.772C227.692 137.753 227.781 137.669 227.854 137.54C228.614 136.146 226.706 130.94 224.65 126.549Z" fill="#FF894E"/>
</svg>
