<svg width="1200" height="720" viewBox="0 0 1200 720" fill="none" xmlns="http://www.w3.org/2000/svg">
  <rect width="1200" height="720" rx="40" fill="#FFFFFF"/>
  <path d="M0 120C240 40 380 40 600 120C820 200 960 200 1200 120V720H0V120Z" fill="#FCFBF7"/>
  <path d="M0 210C240 130 380 130 600 210C820 290 960 290 1200 210" stroke="#0F172A" stroke-opacity="0.06" stroke-width="6"/>
  <path d="M0 270C240 190 380 190 600 270C820 350 960 350 1200 270" stroke="#0F172A" stroke-opacity="0.05" stroke-width="6"/>

  <g opacity="0.9">
    <rect x="170" y="150" width="520" height="420" rx="28" fill="#F8FAFF" stroke="#0F172A" stroke-opacity="0.08" stroke-width="2"/>
    <rect x="210" y="200" width="260" height="22" rx="11" fill="#0F172A" fill-opacity="0.10"/>
    <rect x="210" y="238" width="360" height="14" rx="7" fill="#0F172A" fill-opacity="0.07"/>
    <rect x="210" y="270" width="330" height="14" rx="7" fill="#0F172A" fill-opacity="0.07"/>
    <rect x="210" y="302" width="300" height="14" rx="7" fill="#0F172A" fill-opacity="0.07"/>

    <rect x="210" y="362" width="430" height="74" rx="18" fill="#FFFFFF" stroke="#0F172A" stroke-opacity="0.06" stroke-width="2"/>
    <rect x="232" y="386" width="180" height="12" rx="6" fill="#0F172A" fill-opacity="0.08"/>
    <rect x="232" y="408" width="230" height="12" rx="6" fill="#0F172A" fill-opacity="0.06"/>
    <circle cx="610" cy="399" r="18" fill="#22C55E" fill-opacity="0.18"/>
    <path d="M603 399L610 406L622 392" stroke="#16A34A" stroke-width="5" stroke-linecap="round" stroke-linejoin="round"/>

    <rect x="210" y="456" width="250" height="54" rx="16" fill="#0F172A"/>
    <rect x="240" y="476" width="150" height="14" rx="7" fill="#FFFFFF" fill-opacity="0.92"/>
  </g>

  <g>
    <rect x="720" y="190" width="320" height="380" rx="28" fill="#FFFFFF" stroke="#0F172A" stroke-opacity="0.08" stroke-width="2"/>
    <rect x="760" y="230" width="240" height="20" rx="10" fill="#0F172A" fill-opacity="0.10"/>
    <rect x="760" y="270" width="200" height="12" rx="6" fill="#0F172A" fill-opacity="0.07"/>
    <rect x="760" y="296" width="220" height="12" rx="6" fill="#0F172A" fill-opacity="0.07"/>
    <rect x="760" y="322" width="180" height="12" rx="6" fill="#0F172A" fill-opacity="0.07"/>

    <rect x="760" y="372" width="240" height="86" rx="18" fill="#FCFBF7" stroke="#0F172A" stroke-opacity="0.06" stroke-width="2"/>
    <rect x="780" y="394" width="150" height="12" rx="6" fill="#0F172A" fill-opacity="0.08"/>
    <rect x="780" y="418" width="190" height="12" rx="6" fill="#0F172A" fill-opacity="0.06"/>
    <circle cx="972" cy="415" r="16" fill="#22C55E" fill-opacity="0.18"/>
    <path d="M966 415L972 421L982 410" stroke="#16A34A" stroke-width="5" stroke-linecap="round" stroke-linejoin="round"/>
  </g>

  <g opacity="0.75">
    <circle cx="980" cy="140" r="58" fill="#22C55E" fill-opacity="0.10"/>
    <circle cx="980" cy="140" r="42" fill="#1F6FFF" fill-opacity="0.08"/>
  </g>
</svg>
