<svg width="496" height="321" viewBox="0 0 496 321" fill="none" xmlns="http://www.w3.org/2000/svg">
<path d="M20.895 66.2133H1" stroke="#494949" stroke-width="0.75" stroke-miterlimit="10" stroke-linecap="round" stroke-linejoin="round"/>
<path d="M20.8828 82.4575V66.2133H63.515" stroke="#494949" stroke-width="0.75" stroke-miterlimit="10" stroke-linecap="round" stroke-linejoin="round"/>
<path d="M44.1406 66.2261V48.8999" stroke="#494949" stroke-width="0.75" stroke-miterlimit="10" stroke-linecap="round" stroke-linejoin="round"/>
<path d="M6.39844 82.4579H54.0834" stroke="#494949" stroke-width="0.75" stroke-miterlimit="10" stroke-linecap="round" stroke-linejoin="round"/>
<path d="M447.7 211.895H427.805" stroke="#494949" stroke-width="0.75" stroke-miterlimit="10" stroke-linecap="round" stroke-linejoin="round"/>
<path d="M447.688 228.14V211.895H490.32" stroke="#494949" stroke-width="0.75" stroke-miterlimit="10" stroke-linecap="round" stroke-linejoin="round"/>
<path d="M470.945 211.908V194.582" stroke="#494949" stroke-width="0.75" stroke-miterlimit="10" stroke-linecap="round" stroke-linejoin="round"/>
<path d="M433.203 228.14H480.888" stroke="#494949" stroke-width="0.75" stroke-miterlimit="10" stroke-linecap="round" stroke-linejoin="round"/>
<path d="M346.514 16.1982H192.703V203.823H346.514V16.1982Z" stroke="#494949" stroke-width="0.75" stroke-miterlimit="10" stroke-linecap="round" stroke-linejoin="round"/>
<path d="M337.07 194.351L337.07 25.6732L202.208 25.6732L202.208 194.351L337.07 194.351Z" stroke="#494949" stroke-width="0.75" stroke-miterlimit="10" stroke-linecap="round" stroke-linejoin="round"/>
<path d="M352.083 6.25143H184.492V16.1989H352.083V6.25143Z" stroke="#494949" stroke-width="0.75" stroke-miterlimit="10" stroke-linecap="round" stroke-linejoin="round"/>
<path d="M352.083 203.824H184.492V213.772H352.083V203.824Z" stroke="#494949" stroke-width="0.75" stroke-miterlimit="10" stroke-linecap="round" stroke-linejoin="round"/>
<path d="M336.995 81.5679H202.133V91.0417H336.995V81.5679Z" stroke="#494949" stroke-width="0.75" stroke-miterlimit="10" stroke-linecap="round" stroke-linejoin="round"/>
<path d="M427.885 105.299C454.219 105.299 475.567 83.9509 475.567 57.617C475.567 31.2832 454.219 9.93533 427.885 9.93533C401.551 9.93533 380.203 31.2832 380.203 57.617C380.203 83.9509 401.551 105.299 427.885 105.299Z" stroke="#494949" stroke-width="0.75" stroke-miterlimit="10" stroke-linecap="round" stroke-linejoin="round"/>
<path d="M460.129 73.3845C468.826 55.604 461.463 34.1394 443.682 25.4421C425.902 16.7448 404.437 24.1083 395.74 41.8888C387.043 59.6694 394.406 81.134 412.187 89.8313C429.967 98.5286 451.432 91.1651 460.129 73.3845Z" fill="#027FFF"/>
<path d="M450.438 65.7096L427.914 57.6171V31.8369" stroke="#494949" stroke-width="0.75" stroke-miterlimit="10" stroke-linecap="round" stroke-linejoin="round"/>
<path d="M427.914 21.7782V26.8638" stroke="#494949" stroke-width="0.75" stroke-miterlimit="10" stroke-linecap="round" stroke-linejoin="round"/>
<path d="M402.547 32.2748L406.143 35.8706" stroke="#494949" stroke-width="0.75" stroke-miterlimit="10" stroke-linecap="round" stroke-linejoin="round"/>
<path d="M392.102 57.6171H397.187" stroke="#494949" stroke-width="0.75" stroke-miterlimit="10" stroke-linecap="round" stroke-linejoin="round"/>
<path d="M402.547 82.9587L406.143 79.3625" stroke="#494949" stroke-width="0.75" stroke-miterlimit="10" stroke-linecap="round" stroke-linejoin="round"/>
<path d="M427.914 93.4565V88.371" stroke="#494949" stroke-width="0.75" stroke-miterlimit="10" stroke-linecap="round" stroke-linejoin="round"/>
<path d="M453.268 82.959L449.672 79.3632" stroke="#494949" stroke-width="0.75" stroke-miterlimit="10" stroke-linecap="round" stroke-linejoin="round"/>
<path d="M463.749 57.6171H458.664" stroke="#494949" stroke-width="0.75" stroke-miterlimit="10" stroke-linecap="round" stroke-linejoin="round"/>
<path d="M453.268 32.2748L449.672 35.8711" stroke="#494949" stroke-width="0.75" stroke-miterlimit="10" stroke-linecap="round" stroke-linejoin="round"/>
<path d="M41.5179 213.017C41.5179 213.017 29.6757 249.254 27.3072 275.307C24.9388 301.36 22.5703 318.413 22.5703 318.413H89.0457L98.8345 300.434V318.413H157.572L160.888 214.675L41.5179 213.017Z" fill="#373B3D"/>
<path d="M98.8516 300.434C98.8516 300.434 120.783 239.867 123.08 203.824" stroke="#494949" stroke-width="0.75" stroke-miterlimit="10" stroke-linecap="round" stroke-linejoin="round"/>
<path d="M31.0703 251.862C31.0703 251.862 59.0181 247.332 64.7024 206.845" stroke="#494949" stroke-width="0.75" stroke-miterlimit="10" stroke-linecap="round" stroke-linejoin="round"/>
<path d="M113.945 252.129C119.316 251.973 123.894 248.192 125.06 242.948C127.448 232.214 131.496 214.324 134.253 203.824" stroke="#494949" stroke-width="0.75" stroke-miterlimit="10" stroke-linecap="round" stroke-linejoin="round"/>
<path d="M105.445 280.674L134.186 274.834" stroke="#494949" stroke-width="0.75" stroke-miterlimit="10" stroke-linecap="round" stroke-linejoin="round"/>
<path d="M75.2891 67.5123L77.0379 211.359H147.144C147.144 211.359 136.18 75.9488 127.808 70.8135L75.2891 67.5123Z" fill="white"/>
<path d="M129.251 88.8316C129.251 88.8316 140.303 168.096 139.041 232.834C139.041 232.834 139.041 241.044 147.567 240.729C156.093 240.413 168.409 239.15 170.304 232.834C172.199 226.518 170.549 189.223 170.549 189.223C170.549 189.223 181.21 198.799 200.62 207.902C223.51 218.637 238.411 199.21 251.779 171.634C258.324 158.132 262.365 140.698 247.838 133.119C233.312 125.54 220.095 126.577 212.516 141.419L205.041 159.569L178.831 104.306C178.831 104.306 173.146 90.4109 162.094 85.674C151.041 80.9371 127.758 70.8143 127.758 70.8143L129.251 88.8316Z" fill="#E27640"/>
<path d="M79.0942 65.6786L31.0937 88.8312C31.0937 88.8312 23.5146 90.0945 16.4093 114.726C9.3039 139.358 7.06428 200.702 7.06428 200.702C7.06428 200.702 5.86964 217.281 30.1463 222.254C30.1463 222.254 24.9357 235.518 35.8306 239.307C46.7255 243.097 96.9367 252.097 99.7788 239.307C102.621 226.517 100.253 119.563 89.6736 92.6207C89.6736 92.6207 89.6736 71.9365 79.0942 65.6786Z" fill="#E27640"/>
<path d="M229.11 127.153L226.469 135.578C226.469 135.578 227.574 141.104 235.627 143.473C242.791 145.58 250.153 143.473 250.153 143.473C250.153 143.473 250.469 137.315 252.838 133.841C255.206 130.368 258.258 124.051 252.838 121.999C248.783 120.463 234.364 115.367 230.574 118.209C228.206 119.986 228.489 122.194 229.035 123.6C229.475 124.734 229.473 125.992 229.11 127.153Z" fill="#FFDD2C"/>
<path d="M170.613 189.222L167.539 127.042" stroke="#2A2D99" stroke-width="0.75" stroke-miterlimit="10" stroke-linecap="round" stroke-linejoin="round"/>
<path d="M205.031 159.57C205.031 159.57 197.294 169.203 196.82 179.15" stroke="#2A2D99" stroke-width="0.75" stroke-miterlimit="10" stroke-linecap="round" stroke-linejoin="round"/>
<path d="M232.195 120.727C232.195 120.727 237.375 130.359 252.375 126.096" stroke="#2A2D99" stroke-width="0.75" stroke-miterlimit="10" stroke-linecap="round" stroke-linejoin="round"/>
<path d="M111.82 57.6167C111.82 57.6167 124.531 58.8317 127.058 67.8318C129.584 76.832 129.268 88.832 129.268 88.832C129.268 88.832 123.9 74.1476 114.426 70.358L111.82 57.6167Z" fill="#FFDD2C"/>
<path d="M82.3828 73.516L89.7672 36.7069L118.496 39.7262L119.405 72.7268C119.405 72.7268 128.954 85.5165 117.033 92.6219C105.111 99.7267 87.9179 86.9371 82.3828 73.516Z" fill="#FFBD95"/>
<path d="M119.093 59.8643L118.539 39.7263L96.8516 37.4469C97.7023 43.7233 101.608 56.3566 119.093 59.8643Z" fill="#B7516B"/>
<path d="M89.0582 37.2129C91.8112 35.7973 92.6238 31.89 90.8733 28.4859C89.1228 25.0817 85.472 23.4697 82.7191 24.8854C79.9661 26.301 79.1534 30.2082 80.9039 33.6124C82.6544 37.0166 86.3052 38.6286 89.0582 37.2129Z" fill="#FFBD95"/>
<path d="M89.7668 36.7066C89.7668 36.7066 92.69 29.9613 86.1374 24.5138C86.1374 24.5138 81.1106 15.8837 82.6899 11.9359C84.2691 7.98819 87.9005 10.594 89.6375 7.59361C91.3745 4.59373 95.7955 -0.222293 98.6376 1.27789C101.48 2.77806 101.006 6.64622 105.585 3.88319C110.164 1.12015 115.533 -2.59075 119.954 2.61985C119.954 2.61985 122.559 6.64622 119.48 10.278C119.48 10.278 122.638 16.12 118.612 19.5941L122.006 29.9362C122.006 29.9362 130.454 32.3046 130.927 40.1996C131.401 48.0947 121.611 57.8839 108.585 53.8576C95.5586 49.8312 90.2405 40.8117 89.7668 36.7066Z" fill="#3F2423"/>
<path d="M93.8438 29.9369C93.8438 29.9369 99.9226 24.8054 98.107 16.1208C98.107 16.1208 112.397 17.6996 116.502 13.6732C116.502 13.6732 121.318 20.6995 122.028 29.9364C122.028 29.9364 111.844 28.3576 104.975 36.0944C98.107 43.8312 94.0015 34.5161 93.8438 29.9369Z" fill="#FFBD95"/>
<path d="M116.156 25.9091C116.156 25.9091 120.828 31.8922 118.524 33.5672C115.919 35.462 113.945 27.396 113.945 27.396L116.156 25.9091Z" fill="#FFBD95"/>
<path d="M116.07 25.9091C116.07 25.9091 120.742 31.8922 118.439 33.5672" stroke="#B7516B" stroke-width="0.75" stroke-miterlimit="10" stroke-linecap="round" stroke-linejoin="round"/>
<path d="M180.863 136.036L152.692 203.78H114.828V209.938H150.131H180.132H248.975L282.133 130.2H189.611C185.784 130.2 182.332 132.503 180.863 136.036Z" fill="#5F64C1"/>
<path d="M256.928 209.938H162.031C158.652 209.938 156.36 206.502 157.657 203.382L185.662 136.036C187.131 132.503 190.583 130.2 194.41 130.2H289.306C292.685 130.2 294.977 133.636 293.68 136.756L265.675 204.102C264.206 207.636 260.755 209.938 256.928 209.938Z" fill="white"/>
<path d="M234.379 179.619C240.769 176.599 244.5 171.085 242.713 167.303C240.926 163.521 234.296 162.904 227.906 165.924C221.516 168.944 217.785 174.458 219.572 178.24C221.36 182.022 227.989 182.639 234.379 179.619Z" stroke="#2A2D99" stroke-width="0.75" stroke-miterlimit="10" stroke-linecap="round" stroke-linejoin="round"/>
<path d="M109.238 26.6595C109.238 27.4662 108.832 28.1199 108.33 28.1199C107.829 28.1199 107.422 27.4662 107.422 26.6595C107.422 25.8528 107.828 25.1991 108.33 25.1991C108.832 25.1991 109.238 25.8528 109.238 26.6595Z" fill="#373B3D"/>
<path d="M118.564 26.6589C119.066 26.6589 119.472 26.0051 119.472 25.1986C119.472 24.392 119.066 23.7382 118.564 23.7382C118.063 23.7382 117.656 24.392 117.656 25.1986C117.656 26.0051 118.063 26.6589 118.564 26.6589Z" fill="#373B3D"/>
<path d="M81.5859 28.121L88.1385 31.3577" stroke="#B7516B" stroke-width="0.75" stroke-miterlimit="10" stroke-linecap="round" stroke-linejoin="round"/>
<path d="M84.8179 29.7395C84.8179 29.7395 83.1206 31.4367 85.3309 33.5683" stroke="#B7516B" stroke-width="0.75" stroke-miterlimit="10" stroke-linecap="round" stroke-linejoin="round"/>
<path d="M111.82 36.7184C111.82 36.7184 115.452 38.7846 117.031 37.3171" stroke="#494949" stroke-width="0.75" stroke-miterlimit="10" stroke-linecap="round" stroke-linejoin="round"/>
<path d="M119.409 65.6786L119.055 79.9893" stroke="#B7516B" stroke-width="0.75" stroke-miterlimit="10" stroke-linecap="round" stroke-linejoin="round"/>
<path d="M86.5265 52.8712C86.5265 52.8712 77.7974 51.8831 75.5871 57.2514C73.3764 62.6202 73.8184 68.7967 81.0568 75.8836C88.2953 82.9705 89.6397 92.6205 89.6397 92.6205C89.6397 92.6205 99.4441 74.9452 84.6322 62.3133L86.5265 52.8712Z" fill="#FFDD2C"/>
<path d="M52.1641 122.779C52.1641 122.779 57.0464 151.621 53.8949 177.464" stroke="#2A2D99" stroke-width="0.75" stroke-miterlimit="10" stroke-linecap="round" stroke-linejoin="round"/>
<path d="M30.1576 222.255C30.1576 222.255 70.4214 232.321 89.054 222.08L88.6584 192.176C88.6584 192.176 85.3426 186.491 77.053 184.597C68.7634 182.702 46.9737 164.938 18.7891 193.833" stroke="#2A2D99" stroke-width="0.75" stroke-miterlimit="10" stroke-linecap="round" stroke-linejoin="round"/>
<path d="M88.6115 192.175C88.6115 192.175 82.3133 195.463 82.3834 206.845C82.4535 218.228 86.7167 222.728 86.7167 222.728C86.7167 222.728 93.5852 220.122 99.0327 222.728C104.48 225.333 108.033 222.017 108.98 219.412V199.043C108.98 199.043 103.913 191.464 100.526 192.175C97.1379 192.885 93.8221 195.727 88.6115 192.175Z" fill="#FFDD2C"/>
<path d="M112.798 199.399C112.798 199.399 115.521 194.899 119.666 193.004C123.811 191.11 130.206 188.386 131.864 185.425C133.522 182.465 134.114 188.149 131.864 191.583C129.614 195.018 127.245 199.991 127.245 199.991C127.245 199.991 140.982 206.781 155.667 209.82H166.562C166.562 209.82 163.246 214.439 160.877 214.676C158.509 214.913 154.364 214.676 154.364 214.676C154.364 214.676 152.469 217.992 149.39 218.228C146.311 218.465 112.442 216.926 104.982 218.939C104.982 218.939 101.429 214.748 101.903 207.902C102.377 201.057 105.337 199.044 105.337 199.044L112.798 199.399Z" fill="#FFBD95"/>
<path d="M105.436 197.267C105.436 197.267 100.967 203.425 101.84 210.531C102.712 217.636 106.265 220.715 106.265 220.715" stroke="#2A2D99" stroke-width="0.75" stroke-miterlimit="10" stroke-linecap="round" stroke-linejoin="round"/>
<path d="M154.337 214.676L130.945 211.36" stroke="#B7516B" stroke-width="0.75" stroke-miterlimit="10" stroke-linecap="round" stroke-linejoin="round"/>
<path d="M31.0703 88.8322C31.0703 88.8322 41.8075 91.9902 46.8598 102.411" stroke="#2A2D99" stroke-width="0.75" stroke-miterlimit="10" stroke-linecap="round" stroke-linejoin="round"/>
<path d="M233.954 121.84C233.954 121.84 231.27 108.577 232.533 104.313C233.797 100.05 240.296 94.208 241.23 87.7341C242.165 81.2602 244.533 79.3654 245.639 81.4184C246.744 83.4709 246.744 91.2082 246.744 91.2082C246.744 91.2082 255.846 74.313 258.322 73.8393C260.797 73.3657 259.692 76.9941 259.692 76.9941C259.692 76.9941 261.903 72.2601 263.324 72.7338C264.745 73.2074 263.324 80.4706 263.324 80.4706C263.324 80.4706 265.85 79.3654 264.745 84.7338L263.955 88.3656C263.955 88.3656 266.409 87.7341 265.024 93.5761C263.639 99.4182 259.607 112.05 256.886 115.05C254.165 118.05 249.744 126.734 249.744 126.734C249.744 126.734 238.218 129.261 233.954 121.84Z" fill="#FFBD95"/>
<path d="M246.659 91.2085V95.3054C246.659 95.3054 250.396 101.779 243.922 109.674" stroke="#B7516B" stroke-width="0.75" stroke-miterlimit="10" stroke-linecap="round" stroke-linejoin="round"/>
<path d="M259.684 76.9949L250.789 94.8364" stroke="#B7516B" stroke-width="0.75" stroke-miterlimit="10" stroke-linecap="round" stroke-linejoin="round"/>
<path d="M263.269 80.4712L254.508 98.4189" stroke="#B7516B" stroke-width="0.75" stroke-miterlimit="10" stroke-linecap="round" stroke-linejoin="round"/>
<path d="M246.609 114.253C246.609 114.253 248.47 106.847 255.636 103.99" stroke="#B7516B" stroke-width="0.75" stroke-miterlimit="10" stroke-linecap="round" stroke-linejoin="round"/>
<path d="M248.75 94.8364C248.75 94.8364 254.076 97.4104 257.761 101.306L263.883 88.3667" stroke="#B7516B" stroke-width="0.75" stroke-miterlimit="10" stroke-linecap="round" stroke-linejoin="round"/>
<path d="M208.414 282.452L256.101 193.042C256.101 193.042 265.92 180.253 276.248 177.411C286.575 174.568 302.923 167.147 302.923 167.147L338.997 160.2C338.997 160.2 373.892 164.779 386.682 167.779C399.471 170.779 414.472 181.99 422.998 194.937C431.525 207.885 473.367 285.254 473.367 285.254L413.682 288.096L418.141 319.799H284.603L278.899 286.638L208.414 282.452Z" fill="#FFDD2C"/>
<path d="M316.775 136.516C316.775 136.516 327.196 119.147 316.143 114.884C308.754 112.034 305.564 113.937 299.406 109.516C293.248 105.095 284.248 100.673 278.564 107.621C272.88 114.569 277.932 127.516 292.775 127.99L316.775 136.516Z" fill="#3F2423"/>
<path d="M338.994 160.2L333.187 159.472L318.245 142.395C320.861 142.821 323.742 140.993 325.053 137.89C326.542 134.363 325.437 130.528 322.585 129.324C320.04 128.249 316.967 129.638 315.276 132.455C315.276 132.455 299.52 129.094 296.836 117.567C296.836 117.567 287.046 120.093 285.941 135.252C285.941 135.252 276.309 142.673 281.836 153.725C284.866 159.787 293.926 160.907 302.404 157.767L305.362 165.568L302.92 167.147C302.92 167.147 302.994 185.305 321.181 184.989C339.368 184.674 338.994 160.2 338.994 160.2Z" fill="#FFBD95"/>
<path d="M302.43 157.77C302.43 157.77 309.139 154.043 311.033 149.425C311.033 149.425 310.317 158.635 304.044 162.023L302.43 157.77Z" fill="#B7516B"/>
<path d="M296.273 170.07C296.273 170.07 298.168 194.307 323.116 193.36C348.064 192.412 346.493 161.208 346.493 161.208" stroke="#373B3D" stroke-width="0.75" stroke-miterlimit="10" stroke-linecap="round" stroke-linejoin="round"/>
<path d="M323.014 132.806L316.461 136.043" stroke="#B7516B" stroke-width="0.75" stroke-miterlimit="10" stroke-linecap="round" stroke-linejoin="round"/>
<path d="M319.693 134.424C319.693 134.424 321.39 136.121 319.18 138.253" stroke="#B7516B" stroke-width="0.75" stroke-miterlimit="10" stroke-linecap="round" stroke-linejoin="round"/>
<path d="M290.322 140.661C290.322 140.661 287.48 138.53 288.428 137.109C289.375 135.687 293.886 138.253 293.886 138.253" stroke="#B7516B" stroke-width="0.75" stroke-miterlimit="10" stroke-linecap="round" stroke-linejoin="round"/>
<path d="M291.023 136.68L293.128 130.201" stroke="#B7516B" stroke-width="0.75" stroke-miterlimit="10" stroke-linecap="round" stroke-linejoin="round"/>
<path d="M292.609 144.155C292.609 144.155 296.208 146.109 298.162 143.445" stroke="#B7516B" stroke-width="0.75" stroke-miterlimit="10" stroke-linecap="round" stroke-linejoin="round"/>
<path d="M290.051 133.44C290.051 134.247 289.644 134.9 289.142 134.9C288.641 134.9 288.234 134.247 288.234 133.44C288.234 132.633 288.641 131.98 289.142 131.98C289.644 131.979 290.051 132.633 290.051 133.44Z" fill="#373B3D"/>
<path d="M298.103 134.64C297.912 135.423 297.362 135.962 296.875 135.843C296.388 135.724 296.148 134.993 296.339 134.209C296.531 133.426 297.081 132.887 297.568 133.005C298.055 133.124 298.294 133.856 298.103 134.64Z" fill="#373B3D"/>
<path d="M305.367 165.569L307.815 170.78" stroke="#B7516B" stroke-width="0.75" stroke-miterlimit="10" stroke-linecap="round" stroke-linejoin="round"/>
<path d="M413.685 288.098L396.461 219.649" stroke="#373B3D" stroke-width="0.75" stroke-miterlimit="10" stroke-linecap="round" stroke-linejoin="round"/>
<path d="M278.895 286.638L271.359 224.734" stroke="#373B3D" stroke-width="0.75" stroke-miterlimit="10" stroke-linecap="round" stroke-linejoin="round"/>
<path d="M386.631 223.123C386.631 223.123 383.71 216.096 384.973 209.859C386.236 203.622 375.499 211.833 379.526 220.596L386.631 223.123Z" fill="#B7516B"/>
<path d="M473.404 285.255C467.344 275.232 396.372 250.989 394.117 250.221C393.672 245.479 391.92 226.73 391.85 224.938C391.771 222.885 372.903 214.122 372.903 214.122L362.639 216.333C362.639 216.333 359.087 222.728 356.955 224.228C354.824 225.728 356.008 226.991 356.008 226.991C361.613 228.57 366.429 221.859 366.429 221.859H372.109L374.008 224.701C374.008 224.701 368.481 225.728 366.903 226.596C365.324 227.465 364.85 236.149 364.85 236.149C364.85 236.149 362.561 238.439 362.718 240.018C362.876 241.597 366.824 244.281 366.824 244.281C366.824 244.281 368.324 248.307 368.798 248.781C369.272 249.255 372.43 248.307 372.43 248.307C372.43 248.307 372.39 255.057 381.509 259.913C381.509 259.913 433.687 323.841 458.72 319.598C486.668 314.86 473.404 285.255 473.404 285.255Z" fill="#FFBD95"/>
<path d="M372.43 248.308L374.009 241.676" stroke="#B7516B" stroke-width="0.75" stroke-miterlimit="10" stroke-linecap="round" stroke-linejoin="round"/>
<path d="M366.812 244.281L369.124 237.168C369.591 235.731 370.858 234.703 372.359 234.542L383.865 233.307" stroke="#B7516B" stroke-width="0.75" stroke-miterlimit="10" stroke-linecap="round" stroke-linejoin="round"/>
<path d="M364.805 236.149L369.227 230.052C369.728 229.361 370.502 228.917 371.352 228.834L383.12 227.86" stroke="#B7516B" stroke-width="0.75" stroke-miterlimit="10" stroke-linecap="round" stroke-linejoin="round"/>
<path d="M374.008 224.702L381.35 223.123" stroke="#B7516B" stroke-width="0.75" stroke-miterlimit="10" stroke-linecap="round" stroke-linejoin="round"/>
<path d="M371.758 241.676L377.64 241.202" stroke="#B7516B" stroke-width="0.75" stroke-miterlimit="10" stroke-linecap="round" stroke-linejoin="round"/>
<path d="M394.078 250.221L395.364 255.097" stroke="#B7516B" stroke-width="0.75" stroke-miterlimit="10" stroke-linecap="round" stroke-linejoin="round"/>
<path d="M208.445 282.454C208.445 282.454 190.605 308.634 211.447 319.801H332.475V303.967L259.29 288.098C259.29 288.098 229.364 272.073 208.445 282.454Z" fill="#FFBD95"/>
<path d="M328.403 245.899L356.574 313.643H398.557V319.801H359.134H329.134H260.291L227.133 240.063H319.656C323.482 240.063 326.934 242.365 328.403 245.899Z" fill="#5F64C1"/>
<path d="M252.41 319.801H347.307C350.686 319.801 352.978 316.365 351.68 313.245L323.675 245.899C322.206 242.365 318.755 240.062 314.928 240.062H220.031C216.652 240.062 214.36 243.499 215.657 246.618L243.662 313.964C245.132 317.498 248.583 319.801 252.41 319.801Z" fill="white"/>
<path d="M289.674 288.074C291.461 284.292 287.73 278.778 281.34 275.758C274.95 272.737 268.321 273.355 266.533 277.137C264.746 280.918 268.477 286.432 274.867 289.453C281.257 292.473 287.887 291.855 289.674 288.074Z" stroke="#2A2D99" stroke-width="0.75" stroke-miterlimit="10" stroke-linecap="round" stroke-linejoin="round"/>
<path d="M1 319.8H495.271" stroke="#494949" stroke-width="0.75" stroke-miterlimit="10" stroke-linecap="round" stroke-linejoin="round"/>
</svg>
