<svg width="691" height="540" viewBox="0 0 691 540" fill="none" xmlns="http://www.w3.org/2000/svg">
<path d="M533.772 365.406H655.422V344.616H533.772V365.406Z" stroke="#494949" stroke-width="0.75" stroke-miterlimit="10" stroke-linecap="round" stroke-linejoin="round"/>
<path d="M668.54 539L642.479 365.405H546.678L520.617 539" stroke="#494949" stroke-width="0.75" stroke-miterlimit="10" stroke-linecap="round" stroke-linejoin="round"/>
<path d="M592.936 365.405L566.875 539" stroke="#494949" stroke-width="0.75" stroke-miterlimit="10" stroke-linecap="round" stroke-linejoin="round"/>
<path d="M656.968 461.505H532.57" stroke="#494949" stroke-width="0.75" stroke-miterlimit="10" stroke-linecap="round" stroke-linejoin="round"/>
<path d="M655.391 344.616C655.391 344.616 720.35 244.377 672.738 219.926C625.127 195.475 584.002 264.494 573.461 344.616" stroke="#494949" stroke-width="0.7575" stroke-miterlimit="10" stroke-linecap="round" stroke-linejoin="round"/>
<path d="M672.749 219.926L629.828 344.616" stroke="#494949" stroke-width="0.7575" stroke-miterlimit="10" stroke-linecap="round" stroke-linejoin="round"/>
<path d="M640.324 217.19L599.195 344.617" stroke="#494949" stroke-width="0.7575" stroke-miterlimit="10" stroke-linecap="round" stroke-linejoin="round"/>
<path d="M164.681 344.617H43.0312V365.406H164.681V344.617Z" stroke="#494949" stroke-width="0.75" stroke-miterlimit="10" stroke-linecap="round" stroke-linejoin="round"/>
<path d="M29.875 539L55.9359 365.405H151.736L177.797 539" stroke="#494949" stroke-width="0.75" stroke-miterlimit="10" stroke-linecap="round" stroke-linejoin="round"/>
<path d="M105.398 365.405L131.459 539" stroke="#494949" stroke-width="0.75" stroke-miterlimit="10" stroke-linecap="round" stroke-linejoin="round"/>
<path d="M41.5 461.505H165.897" stroke="#494949" stroke-width="0.75" stroke-miterlimit="10" stroke-linecap="round" stroke-linejoin="round"/>
<path d="M42.9759 344.616C42.9759 344.616 -21.9827 244.377 25.6285 219.926C73.2397 195.475 114.366 264.494 124.906 344.616" stroke="#494949" stroke-width="0.7575" stroke-miterlimit="10" stroke-linecap="round" stroke-linejoin="round"/>
<path d="M25.6328 219.926L68.5538 344.616" stroke="#494949" stroke-width="0.7575" stroke-miterlimit="10" stroke-linecap="round" stroke-linejoin="round"/>
<path d="M58.0078 217.19L99.1364 344.617" stroke="#494949" stroke-width="0.7575" stroke-miterlimit="10" stroke-linecap="round" stroke-linejoin="round"/>
<path d="M307.055 451.406C307.055 451.406 318.891 449.886 325.188 443.805C331.487 437.724 333.224 431.426 333.224 431.426C333.224 431.426 314.982 432.512 307.055 451.406Z" fill="#1E2231"/>
<path d="M214.203 469.649C214.203 469.649 221.261 474.861 232.988 474.861C244.716 474.861 249.385 469.649 249.385 469.649C249.385 469.649 233.315 461.614 214.203 469.649Z" fill="#1E2231"/>
<path d="M249.589 463.48L247.799 504.505C247.799 504.505 247.237 526.165 256.829 534.457C258.399 535.815 257.823 538.355 255.802 538.827C253.775 539.301 250.631 538.919 245.845 536.104C234.769 529.589 219.952 517.535 219.952 517.535C219.952 517.535 214.898 513.735 216.526 504.324C218.625 492.198 219.952 461.505 219.952 461.505L249.589 463.48Z" fill="#FFBD95"/>
<path d="M255.802 538.828C257.823 538.355 258.399 535.815 256.829 534.458C250.845 529.284 248.813 518.909 248.131 511.835C242.365 512.734 238.678 516.559 238.678 516.559C232.434 516.065 221.595 507.495 216.687 503.351C216.634 503.686 216.581 504.013 216.526 504.324C214.898 513.735 219.952 517.536 219.952 517.536C219.952 517.536 234.769 529.589 245.845 536.104C250.631 538.92 253.775 539.302 255.802 538.828Z" fill="#FFDD2C"/>
<path d="M219.211 476.815L249.406 469.649L249.675 463.48L220.038 461.505C220.038 461.505 219.743 468.33 219.211 476.815Z" fill="#B7516B"/>
<path d="M97.3225 282.5L87.6623 320.887C87.6623 320.887 76.0399 351.507 114.697 361.062C153.353 370.618 207.592 386.255 207.592 386.255L214.162 469.649C214.162 469.649 231.101 468.346 249.344 469.649L255.425 399.285L307.004 451.407C307.004 451.407 321.011 435.77 333.173 431.427L286.698 354.547C286.698 354.547 282.029 343.254 264.112 335.002C243.597 325.553 189.653 302.425 189.653 302.425L182.515 291.277L97.3225 282.5Z" fill="#3F2423"/>
<path d="M90.125 311.437C90.125 311.437 119.278 309.977 125.325 285.376" stroke="#6C4460" stroke-width="0.75" stroke-miterlimit="10" stroke-linecap="round" stroke-linejoin="round"/>
<path d="M166.606 309.977L163.093 309.408C160.566 308.999 158.586 307.017 158.179 304.49L155.82 289.829" stroke="#6C4460" stroke-width="0.75" stroke-miterlimit="10" stroke-linecap="round" stroke-linejoin="round"/>
<path d="M163.758 289.829L167.414 316.612" stroke="#6C4460" stroke-width="0.75" stroke-miterlimit="10" stroke-linecap="round" stroke-linejoin="round"/>
<path d="M251.344 234.613C251.344 234.613 263.397 240.313 267.958 250.575C272.518 260.836 271.215 269.469 271.215 269.469C271.215 269.469 253.298 257.253 251.344 234.613Z" fill="#1E2231"/>
<path d="M142.006 191.927C142.006 191.927 113.176 189.006 112.362 165.877C111.502 141.452 141.68 148.612 141.68 148.612C141.68 148.612 137.445 131.998 147.381 126.46C157.317 120.922 165.398 125.483 165.398 125.483C165.398 125.483 175.071 116.85 181.097 122.388C187.124 127.926 173.442 138.351 173.442 138.351L180.12 158.222C180.12 158.222 206.494 158.404 198.851 180.537C191.033 203.177 142.006 191.927 142.006 191.927Z" fill="#3F2423"/>
<path d="M148.509 170.275L117.073 173.696C117.073 173.696 98.5044 174.347 87.1028 191.938C75.7011 209.53 53.3865 264.257 53.3865 264.257C53.3865 264.257 43.9395 287.712 59.4131 294.227C74.8867 300.742 105.182 307.583 105.182 307.583L112.186 280.871C112.186 280.871 158.852 296.128 182.557 291.277L194.441 257.488L217.57 286.409C217.57 286.409 228.157 296.833 238.419 292.924C248.68 289.015 271.158 269.469 271.158 269.469C271.158 269.469 258.127 252.856 251.286 234.613L236.138 243.571L220.018 210.995C220.018 210.995 213.824 197.965 202.259 192.101C190.695 186.238 174.081 175.162 174.081 175.162L148.509 170.275Z" fill="#FFDD2C"/>
<path d="M168.557 130.37C168.557 130.37 175.072 134.768 178.004 142.098C178.004 142.098 185.334 142.749 186.474 148.124C187.614 153.499 184.764 160.177 176.212 161.806L172.303 173.697L174.095 175.162L170.837 207.739L144.125 204.155L148.523 170.276L155.364 155.454C155.364 155.454 148.849 157.734 147.708 149.753C146.568 141.772 155.69 140.795 157.318 147.636C157.318 147.636 170.186 140.306 168.557 130.37Z" fill="#FFBD95"/>
<path d="M172.34 173.695L169.734 181.839" stroke="#B7516B" stroke-width="0.75" stroke-miterlimit="10" stroke-linecap="round" stroke-linejoin="round"/>
<path d="M176.226 161.805C176.226 161.805 170.606 162.62 165.883 161.805C165.883 161.805 170.698 165.364 175.172 165.01L176.226 161.805Z" fill="#B7516B"/>
<path d="M150.445 146.412L155.087 151.217" stroke="#B7516B" stroke-width="0.75" stroke-miterlimit="10" stroke-linecap="round" stroke-linejoin="round"/>
<path d="M152.415 148.487C152.415 148.487 150.494 149.753 151.797 152.44" stroke="#B7516B" stroke-width="0.75" stroke-miterlimit="10" stroke-linecap="round" stroke-linejoin="round"/>
<path d="M173.289 145.782C173.289 145.782 175.496 143.831 176.82 144.987C178.144 146.144 175.569 147.879 175.569 147.879" stroke="#B7516B" stroke-width="0.75" stroke-miterlimit="10" stroke-linecap="round" stroke-linejoin="round"/>
<path d="M170.656 151.219C170.656 151.219 172.285 152.603 174.402 152.44" stroke="#B7516B" stroke-width="0.75" stroke-miterlimit="10" stroke-linecap="round" stroke-linejoin="round"/>
<path d="M169.997 143.349C170.213 144.222 170.001 145.026 169.525 145.144C169.049 145.261 168.488 144.648 168.272 143.775C168.056 142.902 168.268 142.098 168.744 141.98C169.221 141.863 169.782 142.476 169.997 143.349Z" fill="#373B3D"/>
<path d="M177.012 141.934C177.012 142.834 176.614 143.563 176.123 143.563C175.632 143.563 175.234 142.834 175.234 141.934C175.234 141.035 175.632 140.306 176.123 140.306C176.614 140.306 177.012 141.035 177.012 141.934Z" fill="#373B3D"/>
<path d="M144.102 204.154L132.555 282.798L162.473 285.376L170.814 207.738L144.102 204.154Z" fill="white"/>
<path d="M117.435 261.325C117.435 261.325 106.196 277.125 105.219 307.583C105.219 307.583 116.183 300.729 118.693 281.497C120.52 267.496 117.435 261.325 117.435 261.325Z" fill="#1E2231"/>
<path d="M115.36 264.636L163.312 277.02L174.938 264.098C176.457 262.41 178.832 261.789 180.981 262.521C187.81 264.846 202.144 269.859 202.516 271.099C203.005 272.728 201.376 273.053 201.376 273.053C201.376 273.053 207.566 275.612 207.566 277.021C207.566 278.428 205.937 278.428 205.937 278.428C205.937 278.428 208.134 280.861 205.339 281.686C203.5 282.229 200.888 281.686 200.888 281.686C200.888 281.686 201.376 284.129 197.956 284.129C194.535 284.129 183.459 283.152 183.459 283.152C183.459 283.152 180.039 292.762 173.035 293.251C166.031 293.739 106.977 289.857 106.977 289.857C106.977 289.857 109.008 275.224 115.36 264.636Z" fill="#FFBD95"/>
<path d="M118.518 265.452L115.36 264.636C109.008 275.223 106.977 289.856 106.977 289.856C106.977 289.856 110.349 290.077 115.571 290.408C115.96 278.103 118.518 265.452 118.518 265.452Z" fill="#B7516B"/>
<path d="M201.398 273.052L182.016 267.188" stroke="#B7516B" stroke-width="0.75" stroke-miterlimit="10" stroke-linecap="round" stroke-linejoin="round"/>
<path d="M206.074 278.428L182.945 272.239" stroke="#B7516B" stroke-width="0.75" stroke-miterlimit="10" stroke-linecap="round" stroke-linejoin="round"/>
<path d="M201.025 281.685L182.945 276.799" stroke="#B7516B" stroke-width="0.75" stroke-miterlimit="10" stroke-linecap="round" stroke-linejoin="round"/>
<path d="M117.326 261.324L82.5234 251.606" stroke="#373B3D" stroke-width="0.75" stroke-miterlimit="10" stroke-linecap="round" stroke-linejoin="round"/>
<path d="M103.703 257.488L111.309 223.808" stroke="#373B3D" stroke-width="0.75" stroke-miterlimit="10" stroke-linecap="round" stroke-linejoin="round"/>
<path d="M134.988 171.752L126.717 193.736C125.776 196.237 126.169 199.045 127.76 201.192L132.61 207.738L129.683 208.546C125.608 209.671 123.149 213.816 124.116 217.932L130.42 244.765" stroke="#373B3D" stroke-width="0.75" stroke-miterlimit="10" stroke-linecap="round" stroke-linejoin="round"/>
<path d="M189.25 184.547L189.647 208.032C189.693 210.704 188.378 213.217 186.159 214.704L179.391 219.239L181.875 220.983C185.335 223.414 186.256 228.143 183.962 231.694L172.242 249.833" stroke="#373B3D" stroke-width="0.75" stroke-miterlimit="10" stroke-linecap="round" stroke-linejoin="round"/>
<path d="M194.398 257.487L200.914 236.404" stroke="#373B3D" stroke-width="0.75" stroke-miterlimit="10" stroke-linecap="round" stroke-linejoin="round"/>
<path d="M236.138 243.57L219.633 251.606" stroke="#373B3D" stroke-width="0.75" stroke-miterlimit="10" stroke-linecap="round" stroke-linejoin="round"/>
<path d="M252.258 237.068L285.881 215.774C285.881 215.774 289.355 206.436 294.134 205.241C298.911 204.047 306.078 202.744 307.924 199.051C309.77 195.359 312.159 199.594 310.205 202.96C308.25 206.327 307.056 209.259 307.056 209.259C307.056 209.259 328.665 225.547 328.447 227.936C328.23 230.325 325.841 229.456 325.841 229.456C325.841 229.456 328.993 232.279 328.449 234.233C327.905 236.188 324.538 233.691 324.538 233.691C324.538 233.691 324.647 236.623 320.846 235.103L318.24 233.8C318.24 233.8 320.412 236.297 319 236.948C317.589 237.6 314.331 234.994 308.793 233.148C303.255 231.302 295.437 228.153 295.437 228.153L263.304 258.106C255.368 245.961 252.258 237.068 252.258 237.068Z" fill="#FFBD95"/>
<path d="M254.901 235.394L252.258 237.068C252.258 237.068 255.368 245.961 263.304 258.106L268.702 253.074C260.593 246.422 254.901 235.394 254.901 235.394Z" fill="#B7516B"/>
<path d="M307.005 209.258C307.005 209.258 304.182 215.338 297.016 214.905" stroke="#B7516B" stroke-width="0.75" stroke-miterlimit="10" stroke-linecap="round" stroke-linejoin="round"/>
<path d="M325.823 229.454L312.141 219.752" stroke="#B7516B" stroke-width="0.75" stroke-miterlimit="10" stroke-linecap="round" stroke-linejoin="round"/>
<path d="M324.555 233.689L309.727 222.893" stroke="#B7516B" stroke-width="0.75" stroke-miterlimit="10" stroke-linecap="round" stroke-linejoin="round"/>
<path d="M318.253 233.799L307.069 226.306C307.069 226.306 304.137 219.248 296.102 220.985" stroke="#B7516B" stroke-width="0.75" stroke-miterlimit="10" stroke-linecap="round" stroke-linejoin="round"/>
<path d="M313.896 217.511L307.055 226.306" stroke="#B7516B" stroke-width="0.75" stroke-miterlimit="10" stroke-linecap="round" stroke-linejoin="round"/>
<path d="M295.427 228.151L290.375 226.306" stroke="#B7516B" stroke-width="0.75" stroke-miterlimit="10" stroke-linecap="round" stroke-linejoin="round"/>
<path d="M255.448 399.284C255.448 399.284 257.309 375.938 257.744 364.211C258.178 352.483 246.707 346.837 246.707 346.837L169.664 318.061C169.664 318.061 160.825 310.009 142.734 316.975" stroke="#6C4460" stroke-width="0.75" stroke-miterlimit="10" stroke-linecap="round" stroke-linejoin="round"/>
<path d="M170.773 315.292L185.921 307.583" stroke="#6C4460" stroke-width="0.75" stroke-miterlimit="10" stroke-linecap="round" stroke-linejoin="round"/>
<path d="M333.178 431.426C333.178 431.426 367.383 483.982 374.875 487.566C382.368 491.149 376.395 494.515 370.64 492.778C366.297 491.466 331.223 482.028 331.223 482.028C331.223 482.028 328.773 479.381 327.429 474.639C326.519 471.424 325.125 468.367 323.153 465.669L310.25 448.024C310.25 448.024 323.188 434.575 333.178 431.426Z" fill="#FFBD95"/>
<path d="M333.178 431.426C323.189 434.575 310.25 448.023 310.25 448.023L313.763 452.828C319.141 444.988 333.178 431.426 333.178 431.426Z" fill="#B7516B"/>
<path d="M374.886 487.566C372.236 486.298 366.241 478.899 359.601 469.868C354.15 470.193 350.78 476.905 350.78 476.905L326.555 471.98C326.888 472.852 327.185 473.738 327.441 474.639C328.785 479.381 331.235 482.028 331.235 482.028C331.235 482.028 366.308 491.466 370.652 492.778C376.406 494.515 382.379 491.149 374.886 487.566Z" fill="#FFDD2C"/>
<path d="M318.567 219.585L293.529 279.796H259.875V285.27H291.253H317.918H379.106L408.578 214.398H326.342C322.941 214.397 319.874 216.444 318.567 219.585Z" fill="#373B3D"/>
<path d="M386.13 285.269H301.785C298.782 285.269 296.744 282.215 297.897 279.443L322.789 219.585C324.095 216.444 327.162 214.397 330.563 214.397H414.909C417.912 214.397 419.95 217.451 418.796 220.224L393.905 280.082C392.599 283.223 389.531 285.269 386.13 285.269Z" fill="white"/>
<path d="M369.981 252.218C368.402 255.169 364.103 257.56 360.38 257.56C356.656 257.56 354.918 255.169 356.497 252.218C358.077 249.268 362.375 246.877 366.099 246.877C369.822 246.877 371.561 249.268 369.981 252.218Z" stroke="#373B3D" stroke-width="0.75" stroke-miterlimit="10" stroke-linecap="round" stroke-linejoin="round"/>
<path d="M611.85 285.269H202.531V304.036H611.85V285.269Z" fill="#345C83"/>
<path d="M611.85 285.269H202.531V304.036H611.85V285.269Z" stroke="#494949" stroke-width="0.75" stroke-miterlimit="10" stroke-linecap="round" stroke-linejoin="round"/>
<path d="M230.805 538.999L256.866 304.035H557.651L583.712 538.999" stroke="#494949" stroke-width="0.7575" stroke-miterlimit="10" stroke-linecap="round" stroke-linejoin="round"/>
<path d="M453.32 304.035L479.381 538.999" stroke="#494949" stroke-width="0.7575" stroke-miterlimit="10" stroke-linecap="round" stroke-linejoin="round"/>
<path d="M245.555 405.882H568.933" stroke="#494949" stroke-width="0.7575" stroke-miterlimit="10" stroke-linecap="round" stroke-linejoin="round"/>
<path d="M518.75 452.709C518.75 452.709 529.826 450.755 536.993 444.239C544.159 437.724 548.285 422.739 548.285 422.739C548.285 422.739 522.008 428.168 518.75 452.709Z" fill="#1E2231"/>
<path d="M451.055 468.78C451.055 468.78 451.706 476.164 467.994 483.33C484.282 490.497 490.897 485.719 490.897 485.719C490.897 485.719 483.413 465.088 451.055 468.78Z" fill="#1E2231"/>
<path d="M485.788 474.643L471.237 523.507C471.237 523.507 469.5 531.543 462.116 530.023C454.732 528.503 417.939 518.078 417.939 518.078C417.939 518.078 414.247 516.124 416.853 512.432C419.459 508.739 432.489 513.952 439.873 505.048C447.257 496.144 455.944 463.785 455.944 463.785C455.944 463.785 479.056 467.042 485.788 474.643Z" fill="#64AB7E"/>
<path d="M453.555 472.159C453.555 472.159 472.585 479.838 481.628 488.717L485.819 474.644C479.087 467.042 455.976 463.785 455.976 463.785C455.976 463.785 455.053 467.22 453.555 472.159Z" fill="#457A74"/>
<path d="M416.853 512.432C414.247 516.124 417.939 518.079 417.939 518.079C417.939 518.079 454.732 528.503 462.116 530.023C469.5 531.543 471.237 523.508 471.237 523.508L472.389 519.643C465.775 522.492 453.214 520.185 450.855 513.735C448.155 506.352 439.874 505.049 439.874 505.049C432.489 513.952 419.459 508.74 416.853 512.432Z" fill="#D0821F"/>
<path d="M434.117 509.229L436.259 514.602" stroke="#494949" stroke-width="0.7575" stroke-miterlimit="10" stroke-linecap="round" stroke-linejoin="round"/>
<path d="M429.508 510.401L431.409 515.689" stroke="#494949" stroke-width="0.7575" stroke-miterlimit="10" stroke-linecap="round" stroke-linejoin="round"/>
<path d="M425.25 510.776L426.472 515.69" stroke="#494949" stroke-width="0.7575" stroke-miterlimit="10" stroke-linecap="round" stroke-linejoin="round"/>
<path d="M536.431 421.02L575.579 453.682C575.579 453.682 582.276 458.451 577.964 464.634C573.651 470.818 549.546 500.505 549.546 500.505C549.546 500.505 546.293 503.125 543.93 499.273C541.567 495.421 551.501 485.507 546.236 475.208C540.971 464.908 514.672 444.15 514.672 444.15C514.672 444.15 526.79 424.204 536.431 421.02Z" fill="#457A74"/>
<path d="M543.87 499.274C546.233 503.126 549.487 500.506 549.487 500.506C549.487 500.506 573.592 470.819 577.904 464.635C582.217 458.452 575.52 453.683 575.52 453.683L572.423 451.099C572.429 458.3 565.351 468.929 558.493 468.55C550.643 468.115 546.176 475.209 546.176 475.209C551.441 485.509 541.507 495.422 543.87 499.274Z" fill="#E27640"/>
<path d="M547.766 482.191L553.549 482.345" stroke="#494949" stroke-width="0.7575" stroke-miterlimit="10" stroke-linecap="round" stroke-linejoin="round"/>
<path d="M547.031 486.85L552.64 487.191" stroke="#494949" stroke-width="0.7575" stroke-miterlimit="10" stroke-linecap="round" stroke-linejoin="round"/>
<path d="M545.727 490.888L550.723 491.706" stroke="#494949" stroke-width="0.7575" stroke-miterlimit="10" stroke-linecap="round" stroke-linejoin="round"/>
<path d="M502.719 439.244L518.827 452.709C518.827 452.709 534.463 430.122 548.362 422.739L521.867 392.769L502.719 439.244Z" fill="#2A2D99"/>
<path d="M633.02 288.037C633.02 288.037 651.262 335.435 626.07 353.678C600.878 371.92 532.712 381.476 532.712 381.476L490.87 485.72C490.87 485.72 475.352 472.255 451.028 468.78L463.624 414.052L432.234 384.951C432.234 384.951 418.018 366.274 444.948 347.597C471.877 328.92 540.871 298.733 540.871 298.733V291.132L633.02 288.037Z" fill="#5787FF"/>
<path d="M463.586 414.053L485.828 342.386C485.828 342.386 490.833 327.184 508.225 322.84L555.41 305.903L555.45 290.59" stroke="#2A2D99" stroke-width="0.7575" stroke-miterlimit="10" stroke-linecap="round" stroke-linejoin="round"/>
<path d="M454.688 452.709C454.688 452.709 484.447 454.366 497.036 470.26" stroke="#2A2D99" stroke-width="0.7575" stroke-miterlimit="10" stroke-linecap="round" stroke-linejoin="round"/>
<path d="M485.805 461.198L520.531 368.755C522.542 363.401 527.351 359.601 533.026 358.889C555.684 356.048 612.808 347.85 619.059 336.738C626.877 322.839 620.764 288.465 620.764 288.465" stroke="#2A2D99" stroke-width="0.7575" stroke-miterlimit="10" stroke-linecap="round" stroke-linejoin="round"/>
<path d="M609.024 288.876C609.024 288.876 608.663 315.452 622.977 317.625" stroke="#2A2D99" stroke-width="0.7575" stroke-miterlimit="10" stroke-linecap="round" stroke-linejoin="round"/>
<path d="M555.359 305.902C555.359 305.902 577.259 300.602 586.853 303.251" stroke="#2A2D99" stroke-width="0.7575" stroke-miterlimit="10" stroke-linecap="round" stroke-linejoin="round"/>
<path d="M423.924 224.603C423.924 224.603 423.29 216.315 427.525 208.388C431.76 200.461 440.447 200.059 440.447 200.059C440.447 200.059 438.783 218.992 423.924 224.603Z" fill="#1E2231"/>
<path d="M556.028 173.984L526.112 189.495C526.112 189.495 516.34 195.272 505.589 212.092C494.839 228.912 485.809 235.393 485.809 235.393L440.437 200.06C440.437 200.06 433.126 218.016 423.914 224.604C423.914 224.604 469.792 288.2 489.971 288.2C510.15 288.2 532.302 252.041 532.302 252.041L540.813 291.132H560.751V301.557C560.751 301.557 670.749 312.958 677.59 281.359C684.431 249.761 638.174 189.169 638.174 189.169C638.174 189.169 627.098 175.738 615.371 173.984C603.643 172.23 576.442 170.275 576.442 170.275L556.028 173.984Z" fill="#E27640"/>
<path d="M554.211 187.975C554.211 187.975 559.127 202.743 568.016 202.96C576.905 203.177 579.517 190.179 579.84 185.167L554.211 187.975Z" fill="#F4EACC"/>
<path d="M556.108 173.984C556.108 173.984 548.996 186.563 551.927 196.499C554.859 206.435 567.89 192.427 567.89 192.427C567.89 192.427 580.269 198.453 583.689 195.196C587.11 191.938 583.689 177.605 576.522 170.275L556.108 173.984Z" fill="#F4EACC"/>
<path d="M551.844 196.498C554.776 206.433 567.806 192.426 567.806 192.426C567.806 192.426 580.185 198.452 583.605 195.195" stroke="#373B3D" stroke-width="0.7575" stroke-miterlimit="10" stroke-linecap="round" stroke-linejoin="round"/>
<path d="M550.404 135.744C550.404 135.744 542.585 132.16 545.517 124.994C548.449 117.827 557.802 121.736 560.455 125.808C563.108 129.88 573.533 131.509 574.184 138.187C574.836 144.865 570.764 156.43 570.764 156.43L550.404 135.744Z" fill="#3F2423"/>
<path d="M550.412 135.743C550.412 135.743 548.295 140.63 547.643 143.887C547.643 143.887 542.485 143.127 541.291 146.656C540.175 149.954 540.314 158.058 551.878 161.153L556.602 175.649C556.602 175.649 561.162 188.191 567.84 192.426C567.84 192.426 575.984 176.952 576.473 170.274L570.772 156.429C570.772 156.429 576.31 157.569 578.916 153.334C581.522 149.099 578.753 142.096 572.727 144.05C572.727 144.05 570.691 144.457 567.678 148.611C565.071 141.607 559.565 143.969 560.463 137.372C560.463 137.372 553.018 138.838 550.412 135.743Z" fill="#FFBD95"/>
<path d="M570.5 151.788L576.038 147.309" stroke="#B7516B" stroke-width="0.75" stroke-miterlimit="10" stroke-linecap="round" stroke-linejoin="round"/>
<path d="M573.25 149.549C573.25 149.549 575.286 151.762 573.25 153.716" stroke="#B7516B" stroke-width="0.75" stroke-miterlimit="10" stroke-linecap="round" stroke-linejoin="round"/>
<path d="M551.844 161.154C551.844 161.154 557.219 162.565 560.748 161.154C560.748 161.154 557.445 164.807 552.934 164.5L551.844 161.154Z" fill="#B7516B"/>
<path d="M552.329 146.223C552.329 146.223 550.972 144.051 549.614 144.811C548.257 145.571 550.156 148.231 550.156 148.231" stroke="#B7516B" stroke-width="0.75" stroke-miterlimit="10" stroke-linecap="round" stroke-linejoin="round"/>
<path d="M550.945 142.274C550.82 143.164 550.325 143.831 549.839 143.764C549.353 143.696 549.06 142.918 549.185 142.027C549.309 141.137 549.805 140.47 550.291 140.537C550.777 140.605 551.069 141.383 550.945 142.274Z" fill="#373B3D"/>
<path d="M556.39 143.037C556.266 143.928 555.77 144.595 555.284 144.527C554.798 144.46 554.506 143.682 554.63 142.791C554.755 141.9 555.25 141.233 555.736 141.301C556.222 141.369 556.515 142.147 556.39 143.037Z" fill="#373B3D"/>
<path d="M551.281 145.02C551.281 145.02 552.888 142.367 552.888 141.227" stroke="#B7516B" stroke-width="0.75" stroke-miterlimit="10" stroke-linecap="round" stroke-linejoin="round"/>
<path d="M554.211 151.109L557.794 150.566C557.794 150.566 557.469 154.258 556.274 154.475C555.079 154.692 554.211 151.109 554.211 151.109Z" fill="#494949"/>
<path d="M532.35 252.041L526.812 227.717" stroke="#373B3D" stroke-width="0.7575" stroke-miterlimit="10" stroke-linecap="round" stroke-linejoin="round"/>
<path d="M440.477 200.06L423.954 184.717C423.954 184.717 420.388 180.699 415.285 179.396C410.182 178.093 403.558 174.726 402.255 172.555C400.951 170.383 398.888 175.161 401.386 178.419L404.969 182.002C404.969 182.002 381.949 176.899 380.103 178.419C378.257 179.939 381.08 181.35 381.08 181.35C381.08 181.35 376.302 180.699 376.085 182.111C375.868 183.523 380.971 185.368 380.971 185.368C380.971 185.368 379.017 187.432 384.338 190.146L385.641 190.906C385.641 190.906 382.926 193.078 387.704 195.793C392.482 198.508 411.81 202.199 411.81 202.199L428.741 220.078C428.741 220.078 434.939 213.339 440.477 200.06Z" fill="#FFBD95"/>
<path d="M423.914 215.023L428.701 220.077C428.701 220.077 434.899 213.339 440.437 200.059C432.782 210.136 423.914 215.023 423.914 215.023Z" fill="#B7516B"/>
<path d="M404.906 182.003L406.861 183.415C406.861 183.415 409.032 190.039 415.656 191.45" stroke="#B7516B" stroke-width="0.75" stroke-miterlimit="10" stroke-linecap="round" stroke-linejoin="round"/>
<path d="M385.695 190.906L401.549 193.838C401.549 193.838 408.499 190.104 413.819 196.043" stroke="#B7516B" stroke-width="0.75" stroke-miterlimit="10" stroke-linecap="round" stroke-linejoin="round"/>
<path d="M381.016 185.368L401.253 189.591" stroke="#B7516B" stroke-width="0.75" stroke-miterlimit="10" stroke-linecap="round" stroke-linejoin="round"/>
<path d="M381.102 181.35L401.502 185.639" stroke="#B7516B" stroke-width="0.75" stroke-miterlimit="10" stroke-linecap="round" stroke-linejoin="round"/>
<path d="M401.528 193.838C401.528 193.838 400.442 186.129 402.505 182.545" stroke="#B7516B" stroke-width="0.75" stroke-miterlimit="10" stroke-linecap="round" stroke-linejoin="round"/>
<path d="M411.812 202.2C411.812 202.2 416.699 203.503 420.282 201.331" stroke="#B7516B" stroke-width="0.75" stroke-miterlimit="10" stroke-linecap="round" stroke-linejoin="round"/>
<path d="M485.805 235.393L495.813 243.571" stroke="#373B3D" stroke-width="0.7575" stroke-miterlimit="10" stroke-linecap="round" stroke-linejoin="round"/>
<path d="M615.445 216.207L630.687 259.207" stroke="#373B3D" stroke-width="0.7575" stroke-miterlimit="10" stroke-linecap="round" stroke-linejoin="round"/>
<path d="M560.721 301.556C560.721 301.556 565.824 288.037 559.781 274.518C559.781 274.518 554.867 280.721 555.4 290.589C555.834 298.624 560.721 301.556 560.721 301.556Z" fill="#1E2231"/>
<path d="M526.669 305.903H473.152C470.33 305.903 467.939 303.822 467.55 301.027L457.813 231.039C457.34 227.638 459.981 224.604 463.414 224.604H516.931C519.753 224.604 522.144 226.685 522.533 229.48L532.271 299.467C532.744 302.868 530.102 305.903 526.669 305.903Z" fill="white"/>
<path d="M487.486 265.253C486.946 261.914 489.215 259.207 492.554 259.207C495.892 259.207 499.037 261.914 499.577 265.253C500.116 268.592 497.847 271.298 494.508 271.298C491.17 271.298 488.025 268.592 487.486 265.253Z" stroke="#373B3D" stroke-width="0.7575" stroke-miterlimit="10" stroke-linecap="round" stroke-linejoin="round"/>
<path d="M559.91 274.519L545.251 276.147C545.251 276.147 542.428 271.261 537.216 269.632C532.003 268.003 527.66 265.832 527.66 265.832V271.587C527.66 271.587 508.005 263.66 506.702 265.072C505.399 266.483 506.702 268.003 506.702 268.003C506.702 268.003 503.336 266.7 502.793 268.329C502.25 269.958 504.856 271.587 504.856 271.587C504.856 271.587 502.196 274.41 508.304 277.559C508.304 277.559 512.892 285.703 515.824 287.332C518.756 288.961 539.17 291.35 539.17 291.35L562.663 292.939C562.663 292.939 563.673 281.468 559.91 274.519Z" fill="#FFBD95"/>
<path d="M559.623 274.549C559.679 275.109 560.62 285.193 555.906 292.482L562.648 292.938C562.648 292.938 563.659 281.468 559.896 274.519L559.623 274.549Z" fill="#B7516B"/>
<path d="M559.555 274.518L638.194 257.579" stroke="#373B3D" stroke-width="0.7575" stroke-miterlimit="10" stroke-linecap="round" stroke-linejoin="round"/>
<path d="M506.656 268.003C506.656 268.003 521.278 274.844 526.165 275.821" stroke="#B7516B" stroke-width="0.7575" stroke-miterlimit="10" stroke-linecap="round" stroke-linejoin="round"/>
<path d="M504.781 271.586C504.781 271.586 519.186 278.97 525.484 280.273" stroke="#B7516B" stroke-width="0.7575" stroke-miterlimit="10" stroke-linecap="round" stroke-linejoin="round"/>
<path d="M508.227 277.559C508.227 277.559 518.967 283.531 523.853 284.074" stroke="#B7516B" stroke-width="0.7575" stroke-miterlimit="10" stroke-linecap="round" stroke-linejoin="round"/>
<path d="M527.641 271.586L530.752 271.912" stroke="#B7516B" stroke-width="0.7575" stroke-miterlimit="10" stroke-linecap="round" stroke-linejoin="round"/>
<path d="M372 125.5C372 129.642 366.404 133 359.5 133C352.596 133 347 129.642 347 125.5C347 121.358 352.596 118 359.5 118C366.404 118 372 121.358 372 125.5Z" fill="#FFF1CF"/>
<path d="M359 75L359 1" stroke="#494949" stroke-opacity="0.5" stroke-width="0.7575" stroke-miterlimit="10" stroke-linecap="round" stroke-linejoin="round"/>
<path d="M443.086 124.038H276.047C276.047 97.3986 359.567 75.8027 359.567 75.8027C359.567 75.8027 443.086 97.3986 443.086 124.038Z" fill="#FFDD2C"/>
<path d="M1 538.999H690.171" stroke="#494949" stroke-width="0.7575" stroke-miterlimit="10" stroke-linecap="round" stroke-linejoin="round"/>
</svg>
